<?xml version="1.0" encoding="utf-8"?>
<!-- Generator: Adobe Illustrator 24.3.0, SVG Export Plug-In . SVG Version: 6.00 Build 0)  -->
<svg version="1.1" id="Layer_1" xmlns="http://www.w3.org/2000/svg" xmlns:xlink="http://www.w3.org/1999/xlink" x="0px" y="0px"
	 viewBox="0 0 1569 325" style="enable-background:new 0 0 1569 325;" xml:space="preserve">
<style type="text/css">
	.st0{fill:#ED1C24;}
	.st1{clip-path:url(#SVGID_2_);fill:#ED1C24;}
	.st2{clip-path:url(#SVGID_2_);fill:#006330;}
	.st3{fill:#006330;}
	.st4{clip-path:url(#SVGID_4_);fill:#006330;}
	.st5{clip-path:url(#SVGID_6_);fill:#006330;}
	.st6{clip-path:url(#SVGID_8_);fill:#006330;}
	.st7{clip-path:url(#SVGID_10_);fill:#006330;}
	.st8{clip-path:url(#SVGID_12_);fill:#ED1C24;}
	.st9{clip-path:url(#SVGID_12_);fill:#006330;}
	.st10{clip-path:url(#SVGID_14_);fill:#006330;}
	.st11{clip-path:url(#SVGID_16_);fill:#006330;}
	.st12{clip-path:url(#SVGID_18_);fill:#006330;}
	.st13{clip-path:url(#SVGID_20_);fill:#006330;}
	.st14{clip-path:url(#SVGID_22_);fill:#006330;}
	.st15{clip-path:url(#SVGID_24_);fill:#006330;}
	.st16{clip-path:url(#SVGID_26_);fill:#006330;}
	.st17{clip-path:url(#SVGID_28_);fill:#ED1C24;}
	.st18{clip-path:url(#SVGID_30_);fill:#ED1C24;}
	.st19{clip-path:url(#SVGID_32_);fill:#006330;}
	.st20{clip-path:url(#SVGID_34_);fill:#006330;}
	.st21{clip-path:url(#SVGID_36_);fill:#ED1C24;}
	.st22{clip-path:url(#SVGID_36_);fill:#006330;}
	.st23{clip-path:url(#SVGID_38_);fill:#006330;}
	.st24{clip-path:url(#SVGID_40_);fill:#006330;}
	.st25{clip-path:url(#SVGID_42_);fill:#006330;}
	.st26{clip-path:url(#SVGID_44_);fill:#ED1C24;}
	.st27{clip-path:url(#SVGID_44_);fill:#006330;}
	.st28{clip-path:url(#SVGID_46_);fill:#006330;}
	.st29{clip-path:url(#SVGID_48_);fill:#ED1C24;}
	.st30{clip-path:url(#SVGID_48_);fill:#006330;}
	.st31{clip-path:url(#SVGID_50_);fill:#006330;}
	.st32{clip-path:url(#SVGID_52_);fill:#006330;}
	.st33{clip-path:url(#SVGID_54_);fill:#006330;}
	.st34{clip-path:url(#SVGID_56_);fill:#006330;}
</style>
<g>
	<polygon class="st0" points="358.6,138.7 370.8,138.7 370.8,318.3 358.6,318.3 358.6,138.7 	"/>
	<polygon class="st3" points="530.6,286.6 470,199.9 470,273.1 482.2,273.1 482.2,285.3 441,285.3 441,273.1 453.2,273.1 
		453.2,175.5 441,175.5 441,163.2 470.6,163.2 531.3,250.4 531.3,175.5 519.1,175.5 519.1,163.2 560.3,163.2 560.3,175.5 
		548.1,175.5 548.1,286.6 530.6,286.6 	"/>
	<polygon class="st3" points="573.8,285.3 573.8,273.1 586,273.1 586,175.5 573.8,175.5 573.8,163.2 620.5,163.2 620.5,175.5 
		610.5,175.5 610.6,221.8 654,175.5 643.7,175.5 643.7,163.2 678.8,163.2 678.8,175.5 670.6,175.5 632.4,216.4 679.3,273.1 
		688.6,273.1 688.6,285.3 642,285.3 642,273.1 650.2,273.1 610.5,225.2 610.5,273.1 620.5,273.1 620.5,285.3 573.8,285.3 	"/>
	<path class="st3" d="M797.2,282.8c-16.8,3.7-30.6,5.6-41.4,5.6c-19.3,0-34.5-5.8-45.8-17.3c-11.3-11.5-16.9-27.2-16.9-46.9
		c0-20.3,5.6-36,16.7-47.2c11.1-11.2,26.8-16.7,47.1-16.7c7.2,0,14.2,0.4,21.1,1.3c6.9,0.9,13.6,2.2,20.2,3.9v25.9h-13.9l-1-12.2
		c-4.5-2.3-8.9-3.9-13.3-5c-4.4-1.1-8.7-1.6-13-1.6c-11.5,0-20.6,4.6-27.1,13.9c-6.6,9.3-9.8,22-9.8,38.3c0,15.9,3.7,28.5,11,37.7
		c7.3,9.2,17.3,13.7,30.1,13.7c3.5,0,7-0.6,10.5-1.9v-31.8h-12.2v-12.2h46.9v12.2h-9.2V282.8L797.2,282.8z"/>
	<path class="st3" d="M862.4,283.5v-27.1h14.3v12.7c4.1,2.5,7.9,4.3,11.5,5.6c3.6,1.3,7,1.9,10.1,1.9c6.1,0,11-1.7,14.8-5
		c3.7-3.3,5.6-7.7,5.6-13.1c0-5.1-1.2-9.3-3.5-12.5c-2.4-3.1-7-6.6-13.8-10.3l-8.2-4.5c-11.1-6.1-18.9-12-23.6-17.7
		c-4.7-5.7-7-12.1-7-19.4c0-10,3.6-18.2,10.9-24.5c7.3-6.4,16.6-9.5,28-9.5c6,0,12,0.4,17.9,1.2c5.9,0.8,11.8,2.1,17.6,3.8V190
		h-14.3v-11.7c-3.5-2.1-6.8-3.8-10.1-4.8c-3.2-1.1-6.4-1.6-9.5-1.6c-4.7,0-8.6,1.6-11.9,4.9c-3.3,3.3-4.9,7.3-4.9,12
		c0,3.9,1.2,7.2,3.5,9.9c2.4,2.8,6.8,6.1,13.4,9.8l8.2,4.8c11.9,6.8,20.1,13,24.6,18.5c4.5,5.6,6.8,12.2,6.8,19.8
		c0,11.2-4.2,20.1-12.5,26.8c-8.3,6.7-19.4,10-33.2,10c-5.1,0-10.6-0.4-16.4-1.2C875.1,286.3,868.9,285.1,862.4,283.5L862.4,283.5z"
		/>
	<path class="st3" d="M1009.6,284.6c-5,1.9-10.2,2.8-15.5,2.8c-10,0-17.6-2.5-22.6-7.5c-5-5-7.6-12.6-7.6-22.6V207h-12.2v-12.2H964
		v-15.3l24.5-4v19.3h20.1V207h-20.1v50.8c0,5.3,1.1,9.2,3.2,11.9c2.1,2.6,5.3,4,9.4,4c2.5,0,5.4-0.6,8.5-1.7V284.6L1009.6,284.6z"/>
	<path class="st3" d="M1067.3,275.2c6.3,0,11.3-3.2,15.2-9.7c3.9-6.5,5.8-15,5.8-25.4c0-10.4-1.9-18.9-5.8-25.4
		c-3.9-6.5-9-9.7-15.2-9.7c-6.3,0-11.4,3.2-15.3,9.7c-3.9,6.5-5.8,15-5.8,25.4c0,10.5,1.9,18.9,5.8,25.4
		C1055.9,271.9,1061,275.2,1067.3,275.2L1067.3,275.2z M1067.2,287.4c-14.6,0-26.1-4.2-34.5-12.7c-8.4-8.4-12.6-20-12.6-34.7
		c0-14.7,4.2-26.2,12.6-34.7c8.4-8.4,19.9-12.7,34.5-12.7c14.6,0,26.1,4.2,34.4,12.7c8.4,8.4,12.6,20,12.6,34.7
		c0,14.7-4.2,26.2-12.6,34.7C1093.3,283.2,1081.8,287.4,1067.2,287.4L1067.2,287.4z"/>
	<path class="st3" d="M1207.1,283.2c-9.2,2.8-18.7,4.2-28.5,4.2c-15.1,0-27.1-4.4-36-13.2c-8.9-8.8-13.4-20.5-13.4-35.3
		c0-14.4,4.3-25.7,12.8-33.9c8.5-8.2,20.3-12.4,35.3-12.4c5.1,0,10.1,0.3,15.1,1c5,0.7,10.1,1.7,15.1,3.1v23.3h-13.3l-1.1-11.1
		c-2.3-1.4-4.7-2.4-7.1-3.1c-2.4-0.7-5-1-7.6-1c-7.1,0-12.7,3.1-17,9.2c-4.3,6.1-6.4,14.3-6.4,24.5c0,11.2,2.3,19.5,6.9,25.1
		c4.6,5.6,11.5,8.4,20.7,8.4c8.6,0,16.7-1.5,24.3-4.6V283.2L1207.1,283.2z"/>
	<polygon class="st3" points="1258,241.7 1258,273.1 1267.1,273.1 1267.1,285.3 1222.3,285.3 1222.3,273.1 1234.5,273.1 
		1234.5,167.3 1222.3,167.3 1222.3,155.1 1258,155.1 1258,236.3 1263.7,236.3 1290.6,207 1281.5,207 1281.5,194.8 1315.1,194.8 
		1315.1,207 1307,207 1283.1,233.2 1314.7,273.1 1321.9,273.1 1321.9,285.3 1297.3,285.3 1263.7,241.7 1258,241.7 	"/>
	<polygon class="st3" points="1370.9,155.1 1370.9,273.1 1383.1,273.1 1383.1,285.3 1334.1,285.3 1334.1,273.1 1346.4,273.1 
		1346.4,167.3 1334.1,167.3 1334.1,155.1 1370.9,155.1 	"/>
	<path class="st3" d="M1418.4,230.4h32.2v-2.1c0-7.8-1.2-13.7-3.6-17.5c-2.4-3.9-6-5.8-10.8-5.8c-5.3,0-9.4,2.1-12.4,6.4
		C1420.8,215.5,1419,221.9,1418.4,230.4L1418.4,230.4z M1474.4,281.8c-8.5,3.7-18.3,5.6-29.5,5.6c-16.4,0-29.2-4.2-38.4-12.7
		c-9.2-8.5-13.7-20.4-13.7-35.7c0-13.7,4-24.9,12.2-33.5c8.1-8.6,18.7-12.8,31.7-12.8c12.6,0,22,3.9,28.3,11.6
		c6.3,7.7,9.4,19.3,9.4,34.8v3.5h-56.5c0.7,9.9,3.4,17.3,8.1,22.3c4.7,5,11.5,7.4,20.4,7.4c9.2,0,18.5-2.2,28-6.5V281.8
		L1474.4,281.8z"/>
	<path class="st3" d="M1526.6,223.5v49.6h12.2v12.2h-48.9v-12.2h12.2V207h-12.2v-12.2h36.7v17.1c7-12.8,16.6-19.1,28.8-19.1
		c2,0,3.9,0.4,5.8,1.1v26.4h-14.3v-8.3C1539.2,211.8,1532.4,215.7,1526.6,223.5L1526.6,223.5z"/>
	<path class="st0" d="M187.6,134.7c0,4.8-3.9,8.6-8.6,8.6c-4.8,0-8.6-3.9-8.6-8.6c0-4.8,3.9-8.6,8.6-8.6
		C183.8,126,187.6,129.9,187.6,134.7L187.6,134.7z"/>
	<path class="st0" d="M219.1,134.7c0,4.8-3.9,8.6-8.6,8.6c-4.8,0-8.6-3.9-8.6-8.6c0-4.8,3.9-8.6,8.6-8.6
		C215.2,126,219.1,129.9,219.1,134.7L219.1,134.7z"/>
	<path class="st0" d="M203.4,155.1c0,4.8-3.9,8.6-8.6,8.6c-4.8,0-8.6-3.9-8.6-8.6c0-4.8,3.9-8.6,8.6-8.6
		C199.5,146.4,203.4,150.3,203.4,155.1L203.4,155.1z"/>
	<g>
		<defs>
			<rect id="SVGID_51_" x="7.8" y="50.2" width="1553.3" height="270.4"/>
		</defs>
		<clipPath id="SVGID_2_">
			<use xlink:href="#SVGID_51_"  style="overflow:visible;"/>
		</clipPath>
		<path class="st2" d="M194.7,50.2C194.7,50.2,194.7,50.2,194.7,50.2C194.7,50.2,194.7,50.2,194.7,50.2
			c-8.4,15.5-17.2,30.8-17.2,44.4c0,13.1,7.2,23,17.1,40.1c0,0,0,0,0,0c0,0,0,0,0,0c9.9-17,17.1-27,17.1-40.1
			C211.9,81,203.1,65.7,194.7,50.2L194.7,50.2z"/>
		<path class="st2" d="M148.1,301.6c-5.5,0-10.9-0.1-16.2-0.4c-0.2,0-5.1-0.3-7.3-0.5c-4.3-1-5.8-3.8-5.8-12.3l0,0v-86.6l59.5,82.8
			l10.1,14.1C176.2,300.6,162.7,301.6,148.1,301.6L148.1,301.6z M86.1,284.7c0,11-15.9,3.8-21.4,1.2c-3-1.5-5.9-3.2-8.6-4.9
			c-9.3-6.1-15.7-13.5-20.3-22c-4.7-8.7-6.8-18.9-6.8-30.3c0-11.4,2-21.6,6.8-30.3c4.6-8.5,11-15.9,20.3-22c2.8-1.8,5.8-3.5,8.9-5.1
			c5.8-2.7,21-9.4,21,1.4V284.7L86.1,284.7z M255.2,163.8l-18.3,10.7c1.1,0.6,2.2,1.3,3.2,2c9.3,6.1,15.7,13.5,20.3,22
			c4.7,8.7,6.8,18.9,6.8,30.3c0,11.4-2,21.6-6.8,30.3c-4.6,8.5-11,15.9-20.3,22c-8.1,5.2-17.8,9.5-29,12.8v-13.4v-82.1
			c0-0.1,0-0.2,0-0.4c0.2-29.1,26.1-25.6,47.4-43.9c21.2-18.3,19.1-41.5,19.1-41.5c-12.9,7.3-22.5,0.7-43.3,16
			C214.7,143,196.9,178,194.9,195h-0.4c-2-17.1-19.8-52-39.4-66.4c-20.8-15.3-30.4-8.8-43.3-16c0,0-2.1,23.2,19.1,41.5
			c21.2,18.3,47.1,14.8,47.4,43.9v36.4l-55.2-77.4l-12.7-17.8c-2.5,0.3-5,0.7-7.5,1.1C43.2,150,7.8,180.5,7.8,228.8
			c0,59.4,52.9,91.9,140.3,91.9c87.4,0,140.3-32.5,140.3-91.9C288.4,201.1,276.1,179.3,255.2,163.8L255.2,163.8z"/>
	</g>
</g>
</svg>
