<svg xmlns="http://www.w3.org/2000/svg" xmlns:xlink="http://www.w3.org/1999/xlink" viewBox="0 0 68.49 72.02"><defs><style>.cls-1{isolation:isolate;}.cls-2{mix-blend-mode:multiply;opacity:0.8;fill:url(#radial-gradient);}.cls-3{fill:#0092c0;}.cls-4{fill:#fff;}</style><radialGradient id="radial-gradient" cx="34.24" cy="37.78" r="34.24" gradientUnits="userSpaceOnUse"><stop offset="0" stop-color="#000056"/><stop offset="0.39" stop-color="#7373a2" stop-opacity="0.55"/><stop offset="0.78" stop-color="#d9d9e6" stop-opacity="0.15"/><stop offset="1" stop-color="#fff" stop-opacity="0"/></radialGradient></defs><g class="cls-1"><g id="Camada_2" data-name="Camada 2"><g id="Layout_1" data-name="Layout 1"><circle class="cls-2" cx="34.24" cy="37.78" r="34.24"/><rect class="cls-3" x="1.18" width="47.69" height="47.69" rx="12.47" transform="translate(48.87 -1.18) rotate(90)"/><path class="cls-4" d="M32.43,14.86a1.64,1.64,0,1,0,1.64,1.64A1.63,1.63,0,0,0,32.43,14.86Z"/><path class="cls-4" d="M25.14,17A6.89,6.89,0,1,0,32,23.84,6.89,6.89,0,0,0,25.14,17Zm0,11.29a4.41,4.41,0,1,1,4.41-4.41A4.42,4.42,0,0,1,25.14,28.25Z"/><path class="cls-4" d="M30.61,37.82H19.45a8.41,8.41,0,0,1-8.4-8.4V18.26a8.41,8.41,0,0,1,8.4-8.4H30.61A8.4,8.4,0,0,1,39,18.26V29.42A8.4,8.4,0,0,1,30.61,37.82ZM19.45,12.5a5.77,5.77,0,0,0-5.77,5.76V29.42a5.78,5.78,0,0,0,5.77,5.77H30.61a5.77,5.77,0,0,0,5.76-5.77V18.26a5.76,5.76,0,0,0-5.76-5.76Z"/></g></g></g></svg>