<svg xmlns="http://www.w3.org/2000/svg" viewBox="0 0 37.61 41.5"><defs><style>.cls-1{fill:#fff;}</style></defs><g id="Camada_2" data-name="Camada 2"><g id="Layout_1" data-name="Layout 1"><path class="cls-1" d="M14.65,29.74a.7.7,0,0,1,.7-.7h6.92a.7.7,0,0,1,.69.7V40.12H14.65V29.74ZM5,22.81a.7.7,0,0,0-.69.7V39.43A2.07,2.07,0,0,0,6.35,41.5H31.26a2.07,2.07,0,0,0,2.08-2.07V23.51a.7.7,0,0,0-.69-.7.71.71,0,0,0-.7.7V39.43a.69.69,0,0,1-.69.69H24.34V29.74a2.08,2.08,0,0,0-2.07-2.08H15.35a2.08,2.08,0,0,0-2.08,2.08V40.12H6.35a.69.69,0,0,1-.69-.69V23.51a.7.7,0,0,0-.7-.7Z"/><path class="cls-1" d="M1.6,18.79,18.32,1.57a.67.67,0,0,1,.48-.2.66.66,0,0,1,.48.2L36,18.79a.72.72,0,0,1,.15.82.67.67,0,0,1-.63.44H35.3a.69.69,0,0,1-.49-.21h0a0,0,0,0,1,0,0L19.3,3.87h0l-.11-.08-.12-.07-.12,0a.32.32,0,0,0-.27,0l-.12,0-.12.07-.11.08h0L2.83,19.81l0,0s0,0,0,0a.65.65,0,0,1-.48.21H2.08a.67.67,0,0,1-.63-.44.74.74,0,0,1,.15-.82Zm.48,2.64h.24a2.09,2.09,0,0,0,1.34-.51l.14-.11,15-15.46,15,15.47a.58.58,0,0,0,.12.1,2.1,2.1,0,0,0,1.35.51h.23a2,2,0,0,0,1.91-1.27A2.15,2.15,0,0,0,37,17.83L20.28.61a2.09,2.09,0,0,0-3,0L.6,17.83a2.13,2.13,0,0,0-.43,2.33,2,2,0,0,0,1.91,1.27Z"/><path class="cls-1" d="M15.35,22.13V17.28a.69.69,0,0,1,.69-.69h5.53a.69.69,0,0,1,.7.69v4.85a.69.69,0,0,1-.7.68H16a.68.68,0,0,1-.69-.68Zm6.22,2.07a2.08,2.08,0,0,0,2.08-2.07V17.28a2.08,2.08,0,0,0-2.08-2.08H16A2.08,2.08,0,0,0,14,17.28v4.85A2.08,2.08,0,0,0,16,24.2Z"/><path class="cls-1" d="M16.73,33.89H16a.7.7,0,0,0,0,1.39h.69a.7.7,0,0,0,0-1.39Z"/></g></g></svg>