<?xml version="1.0" encoding="utf-8"?>
<!-- Generator: Adobe Illustrator 26.0.1, SVG Export Plug-In . SVG Version: 6.00 Build 0)  -->
<svg version="1.1" id="Camada_1" xmlns="http://www.w3.org/2000/svg" xmlns:xlink="http://www.w3.org/1999/xlink" x="0px" y="0px"
	 viewBox="0 0 366.9 422.1" style="enable-background:new 0 0 366.9 422.1;" xml:space="preserve">
<style type="text/css">
	.st0{enable-background:new    ;}
	.st1{fill:#FFFFFF;}
	.st2{fill:#D43B58;}
</style>
<g id="Camada_2_00000007422928993959018220000011188786581994984890_">
	<g id="Layout_1">
		<g class="st0">
			<path class="st1" d="M2.7,39.9l1.8-3.9c2.6,2.3,7,4,11.4,4c6,0,8.6-2.3,8.6-5.3c0-8.5-21-3.1-21-16c0-5.3,4.2-9.9,13.3-9.9
				c4.1,0,8.3,1.1,11.1,3.1l-1.6,4c-3-1.9-6.4-2.8-9.5-2.8c-5.9,0-8.4,2.5-8.4,5.5c0,8.5,21,3.2,21,15.9c0,5.3-4.3,9.8-13.4,9.8
				C10.6,44.3,5.4,42.5,2.7,39.9z"/>
			<path class="st1" d="M33.7,26.6c0-10.1,7.8-17.7,18.5-17.7c10.5,0,18.4,7.5,18.4,17.7c0,10.2-7.8,17.7-18.4,17.7
				C41.5,44.3,33.7,36.7,33.7,26.6z M65.6,26.6c0-7.7-5.7-13.3-13.4-13.3c-7.8,0-13.5,5.6-13.5,13.3s5.7,13.3,13.5,13.3
				C59.9,39.9,65.6,34.2,65.6,26.6z"/>
		</g>
		<g class="st0">
			<path class="st1" d="M78.1,9.3h4.9v30.3h18.8v4.3H78.1V9.3z"/>
		</g>
		<g class="st0">
			<path class="st1" d="M106.6,28.9V9.3h4.9v19.5c0,7.7,3.5,11.1,9.7,11.1s9.8-3.5,9.8-11.1V9.3h4.8v19.7c0,10-5.5,15.3-14.6,15.3
				C112.2,44.3,106.6,39,106.6,28.9z"/>
		</g>
		<g class="st0">
			<path class="st1" d="M171.5,35.7l3.2,3.1c-3.1,3.5-7.6,5.3-12.9,5.4l-0.5,2.1c2.9,0.3,4.3,1.9,4.3,4.1c0,2.8-2.4,4.5-6.1,4.5
				c-1.7,0-3.2-0.3-4.4-1.1l1-2.4c1,0.6,2.1,0.8,3.4,0.8c1.9,0,2.8-0.7,2.8-2c0-1.1-0.8-1.9-2.8-1.9h-1.3l1.1-4.3
				c-9.3-1-16-8.1-16-17.6c0-10.2,7.8-17.7,18.4-17.7c5.3,0,10,1.8,13.2,5.4l-3.2,3.1c-2.7-2.8-5.9-4.1-9.7-4.1
				c-7.8,0-13.6,5.6-13.6,13.3s5.8,13.3,13.6,13.3C165.6,39.9,168.9,38.5,171.5,35.7z"/>
		</g>
		<g class="st0">
			<path class="st1" d="M178.3,26.6c0-10.1,7.8-17.7,18.5-17.7c10.5,0,18.4,7.5,18.4,17.7c0,10.2-7.8,17.7-18.4,17.7
				C186.1,44.3,178.3,36.7,178.3,26.6z M210.1,26.6c0-7.7-5.7-13.3-13.4-13.3c-7.8,0-13.5,5.6-13.5,13.3s5.7,13.3,13.5,13.3
				C204.4,39.9,210.1,34.2,210.1,26.6z M193.6,3c-1.4,0-2.4,1.1-2.5,3.1h-2.7c0.1-3.7,2-6,4.8-6c3.2,0,4.8,3.4,6.6,3.4
				c1.4,0,2.4-1.1,2.5-3h2.7c-0.1,3.5-2,5.9-4.8,5.9C197,6.3,195.4,3,193.6,3z"/>
			<path class="st1" d="M247.8,39.6v4.3h-25.1V9.3h24.4v4.3h-19.5v10.6H245v4.2h-17.4v11.2H247.8z"/>
			<path class="st1" d="M252.6,39.9l1.8-3.9c2.6,2.3,7,4,11.4,4c6,0,8.6-2.3,8.6-5.3c0-8.5-21-3.1-21-16c0-5.3,4.2-9.9,13.3-9.9
				c4.1,0,8.3,1.1,11.1,3.1l-1.6,4c-3-1.9-6.4-2.8-9.5-2.8c-5.9,0-8.4,2.5-8.4,5.5c0,8.5,21,3.2,21,15.9c0,5.3-4.3,9.8-13.4,9.8
				C260.6,44.3,255.4,42.5,252.6,39.9z"/>
		</g>
		<g class="st0">
			<path class="st1" d="M13.8,66.6V72h16.4V80H13.8v5.5h18.6v7.9H3.5V58.7h28.4v7.9H13.8z"/>
			<path class="st1" d="M83.3,76.3v17.1h-10V79.2c0-2.7-1.5-4.4-3.7-4.4c-2.6,0-4.2,2.2-4.2,5.2v13.3h-10V79.2
				c0-2.7-1.5-4.4-3.7-4.4c-2.6,0-4.3,2.2-4.3,5.2v13.3h-10V66.5h10v4.1c1.8-2.9,4.7-4.5,8.4-4.5c4.2,0,7.4,2.2,8.9,5.8
				c1.7-3.8,4.9-5.8,9.1-5.8C79.4,66.1,83.3,70.1,83.3,76.3z"/>
			<path class="st1" d="M117.8,92.1c-1.9,1.1-4.8,1.7-7.5,1.7c-5.7,0-9.6-3.3-9.6-8.9V74.2h-3.7v-6.4h3.7v-7.5h9.9v7.5h6.6v6.4h-6.6
				v9.2c0,1.7,0.9,2.6,2.3,2.6c0.8,0,1.9-0.3,3.1-0.8L117.8,92.1z"/>
			<path class="st1" d="M147.7,82.3h-18.1c0.8,2.6,2.7,4,5.2,4c2.1,0,4.2-0.9,5.9-2.6l5.2,5.1c-2.8,3.1-6.9,4.8-12,4.8
				c-9,0-14.5-5.4-14.5-13.7c0-8.4,5.7-13.9,14.2-13.9C143.2,66.1,148.3,72.4,147.7,82.3z M137.9,77.4c0-2.7-1.6-4.6-4.1-4.6
				c-2.3,0-3.9,1.8-4.4,4.6H137.9z"/>
			<path class="st1" d="M176.2,73.1l-7.7,3.8c-0.9-1.7-2.4-2.7-4.3-2.7c-2.7,0-4.5,2.3-4.5,5.7c0,3.5,1.8,5.8,4.5,5.8
				c1.9,0,3.4-0.9,4.3-3l7.8,3.9c-2.1,4.5-6.6,7-12.6,7c-8.5,0-14-5.4-14-13.7c0-8.4,5.6-13.9,14.1-13.9
				C169.4,66.1,173.9,68.7,176.2,73.1z"/>
			<path class="st1" d="M207.8,76.3v17.1h-10V79.2c0-2.7-1.5-4.4-3.9-4.4c-2.7,0-4.4,2.2-4.4,5.2v13.3h-10V66.5h10v4.2
				c1.9-3,4.8-4.6,8.6-4.6C203.8,66.1,207.8,70.1,207.8,76.3z"/>
			<path class="st1" d="M240.9,79.9c0,8.3-5.9,13.8-14.9,13.8s-15-5.5-15-13.8c0-8.4,5.9-13.8,15-13.8S240.9,71.5,240.9,79.9z
				 M221.1,80c0,3.6,1.9,6,4.9,6c2.9,0,4.8-2.4,4.8-6c0-3.6-1.9-6-4.8-6C223,74,221.1,76.4,221.1,80z"/>
			<path class="st1" d="M245.2,93.4V56.7h10v36.7H245.2z"/>
			<path class="st1" d="M289.3,79.9c0,8.3-5.9,13.8-14.9,13.8s-15-5.5-15-13.8c0-8.4,5.9-13.8,15-13.8S289.3,71.5,289.3,79.9z
				 M269.5,80c0,3.6,1.9,6,4.9,6c2.9,0,4.8-2.4,4.8-6c0-3.6-1.9-6-4.8-6C271.4,74,269.5,76.4,269.5,80z"/>
			<path class="st1" d="M319.6,91c0,7.6-6,12.4-14.8,12.4c-5,0-9.5-1.6-12.4-3.5l3.3-6.7c2.4,1.6,5.5,2.5,8.3,2.5
				c3.6,0,5.7-1.7,5.7-4.3v-2.7c-1.7,2.1-4.2,3.2-7.2,3.2c-6.5,0-11.3-5.1-11.3-13c0-7.7,4.6-12.7,11.1-12.7c3.2,0,5.7,1.2,7.4,3.3
				v-2.9h9.9V91z M309.7,79.1c0-3.4-1.8-5.6-4.6-5.6c-2.7,0-4.6,2.3-4.6,5.6c0,3.3,1.8,5.5,4.6,5.5
				C307.9,84.7,309.7,82.4,309.7,79.1z"/>
			<path class="st1" d="M335.7,58.8c0,3-2.1,5.1-5.1,5.1s-5.1-2.1-5.1-5.1s2.1-5.1,5.1-5.1S335.7,55.8,335.7,58.8z M325.5,93.4V66.5
				h10v26.9H325.5z"/>
			<path class="st1" d="M366.3,75.9v17.5h-9.8v-3c-1.6,2.2-4.3,3.4-7.9,3.4c-5.7,0-9.1-3.4-9.1-8.5c0-5.2,3.6-8.1,10.4-8.2h6.6v-0.1
				c0-2.2-1.6-3.6-4.7-3.6c-2.1,0-5.1,0.6-8.1,1.9l-2.5-6.6c4.4-1.8,8.8-2.8,13-2.8C361.8,66.1,366.3,69.7,366.3,75.9z M356.5,84.5
				v-2.4h-4.6c-2,0-3,0.8-3,2.5s1.1,2.7,3,2.7C354,87.3,355.7,86.2,356.5,84.5z"/>
		</g>
		<rect x="0.6" y="166.6" class="st2" width="3.5" height="132.5"/>
		<g class="st0">
			<path class="st1" d="M23.5,175.3c0,3.4-2.2,5.3-6.6,5.3h-2.2v4.9h-3.9V170h6.1C21.5,170,23.5,172.1,23.5,175.3z M19.4,175.3
				c0-1.3-0.8-2.1-2.3-2.1h-2.4v4.4H17C18.4,177.6,19.4,177,19.4,175.3z"/>
		</g>
		<g class="st0">
			<path class="st1" d="M32.5,183.3H27l-0.6,2.3h-4l5-15.6h4.9l5,15.6h-4.1L32.5,183.3z M29.8,172.9l-1.9,7.3h3.8L29.8,172.9z"/>
			<path class="st1" d="M42.2,185.6h-3.9V170h3.9V185.6z"/>
			<path class="st1" d="M58.1,185.6h-4.6l-5.2-9.7v9.7h-3.5V170h4.7l5.2,9.9V170h3.5V185.6z"/>
			<path class="st1" d="M71.3,173.2h-6.8v2.9h6.4v3.1h-6.4v3.2h7v3.2H60.6V170h10.7V173.2z M67.3,168.8h-2.8l2.3-3.5h4.6L67.3,168.8
				z"/>
			<path class="st1" d="M77.4,185.6h-3.9V170h3.9V185.6z"/>
			<path class="st1" d="M78.7,183.1l2.5-2.3c1.3,1.3,2.8,2,4.9,2c1.6,0,2.7-0.6,2.7-1.6c0-1-0.5-1.4-3.6-2c-3.8-0.7-5.6-2-5.6-4.9
				s2.5-4.7,6.3-4.7c3.1,0,5.3,1.2,6.7,2.8l-2.6,2.2c-0.9-1-2.1-1.7-4.1-1.7c-1.5,0-2.3,0.5-2.3,1.4c0,0.9,0.6,1.3,3.5,1.8
				c4,0.7,5.8,2,5.8,4.9c0,3.3-2.8,5-6.9,5C82.9,186,80.4,184.9,78.7,183.1z"/>
			<path class="st1" d="M109.5,173.2h-6.8v2.9h6.4v3.1h-6.4v3.2h7v3.2H98.8V170h10.7V173.2z"/>
			<path class="st1" d="M115.6,182.2h6.6v3.3h-10.5V170h3.9V182.2z"/>
			<path class="st1" d="M134.3,173.2h-6.8v2.9h6.4v3.1h-6.4v3.2h7v3.2h-10.9V170h10.7V173.2z"/>
			<path class="st1" d="M147.8,173.2h-4.3v12.3h-3.9v-12.3h-4.3V170h12.6V173.2z"/>
			<path class="st1" d="M161.7,174.9c0,2.1-1.1,3.5-3.1,4.3l4,6.3h-4.7l-3.2-5.7H153v5.7H149V170h6.2
				C159.7,170,161.7,172.1,161.7,174.9z M153,173.1v3.8h2.3c1.4,0,2.3-0.5,2.3-2c0-1.3-0.8-1.9-2.2-1.9H153z"/>
			<path class="st1" d="M178.8,177.8c0,5.6-3.8,8.2-8,8.2c-3.8,0-8-2.3-8-8.2c0-5.7,3.8-8.2,8-8.2
				C174.7,169.6,178.8,171.7,178.8,177.8z M175.9,168.8h-3.4l-1.7-1.4l-1.6,1.4h-3.4l3.1-3.4h3.8L175.9,168.8z M166.9,177.7
				c0,3.2,1.4,5,3.9,5c2.2,0,3.9-1.7,3.9-5c0-3.1-1.4-5-3.9-5C168.5,172.8,166.9,174.5,166.9,177.7z"/>
			<path class="st1" d="M194,185.6h-4.6l-5.2-9.7v9.7h-3.5V170h4.7l5.2,9.9V170h3.5V185.6z"/>
			<path class="st1" d="M200.5,185.6h-3.9V170h3.9V185.6z"/>
		</g>
		<g class="st0">
			<path class="st1" d="M217.1,174.2l-3.8,1c-0.6-1.6-1.6-2.4-3.2-2.4c-2.3,0-3.7,1.8-3.7,4.9s1.3,5,3.7,5c1.9,0,2.9-1,3.6-2.7
				l3.7,1.1c-1.2,3.2-4.1,4.8-7.4,4.8c-3.9,0-7.7-2.4-7.7-8.2c0-5.7,3.7-8.2,7.7-8.2C213,169.6,215.8,170.8,217.1,174.2z"/>
			<path class="st1" d="M234,177.8c0,5.6-3.8,8.2-8,8.2c-3.8,0-8-2.3-8-8.2c0-5.7,3.8-8.2,8-8.2C229.9,169.6,234,171.7,234,177.8z
				 M222.1,177.7c0,3.2,1.4,5,3.9,5c2.2,0,3.9-1.7,3.9-5c0-3.1-1.4-5-3.9-5C223.7,172.8,222.1,174.5,222.1,177.7z"/>
		</g>
		<g class="st0">
			<path class="st1" d="M234.7,183.1l2.5-2.3c1.3,1.3,2.8,2,4.9,2c1.6,0,2.7-0.6,2.7-1.6c0-1-0.5-1.4-3.6-2c-3.8-0.7-5.6-2-5.6-4.9
				s2.5-4.7,6.3-4.7c3.1,0,5.3,1.2,6.7,2.8l-2.6,2.2c-0.9-1-2.1-1.7-4.1-1.7c-1.5,0-2.3,0.5-2.3,1.4c0,0.9,0.6,1.3,3.5,1.8
				c4,0.7,5.8,2,5.8,4.9c0,3.3-2.8,5-6.9,5C238.8,186,236.3,184.9,234.7,183.1z"/>
		</g>
		<g class="st0">
			<path class="st1" d="M19.4,221.6h-5.5l-0.6,2.3h-4l5-15.6h4.9l5,15.6H20L19.4,221.6z M16.6,211.2l-1.9,7.3h3.8L16.6,211.2z"/>
		</g>
		<g class="st0">
			<path class="st1" d="M38,218c0,3.6-2.1,6.3-6.7,6.3c-4.6,0-6.6-2.8-6.6-6.3v-9.7h3.9v9.7c0,2.2,0.8,3.1,2.7,3.1
				c1.9,0,2.7-1.1,2.7-3.1v-9.7H38V218z"/>
		</g>
		<g class="st0">
			<path class="st1" d="M51.7,211.5h-4.3v12.3h-3.9v-12.3h-4.3v-3.2h12.6V211.5z"/>
		</g>
		<g class="st0">
			<path class="st1" d="M68,216.1c0,5.6-3.8,8.2-8,8.2c-3.8,0-8-2.3-8-8.2c0-5.7,3.8-8.2,8-8.2C63.8,207.8,68,210,68,216.1z
				 M56.1,216c0,3.2,1.4,5,3.9,5c2.2,0,3.9-1.7,3.9-5c0-3.1-1.4-5-3.9-5C57.7,211.1,56.1,212.8,56.1,216z"/>
			<path class="st1" d="M86.9,223.8h-3.8v-11.1l-2.9,11.1h-3.6l-3.2-10.9v10.9h-3.6v-15.6h5.5l3.2,11.1l2.8-11.1h5.7V223.8z"/>
		</g>
		<g class="st0">
			<path class="st1" d="M97.9,221.6h-5.5l-0.6,2.3h-4l5-15.6h4.9l5,15.6h-4.1L97.9,221.6z M95.2,211.2l-1.9,7.3h3.8L95.2,211.2z"/>
		</g>
		<g class="st0">
			<path class="st1" d="M111.6,224.1l0,0.6c1.6,0.2,2.5,0.9,2.5,2.1c0,1.6-1.4,2.5-3.6,2.5c-1.2,0-2.1-0.3-3-0.7l0.8-1.8
				c0.6,0.2,1.2,0.4,1.8,0.4c0.6,0,1-0.1,1-0.6c0-0.6-0.7-0.8-2.3-0.8l0.3-1.8c-3.5-0.4-6.6-2.8-6.6-8.1c0-5.7,3.7-8.2,7.7-8.2
				c3,0,5.7,1.2,7.1,4.6l-3.8,1c-0.6-1.6-1.6-2.4-3.2-2.4c-2.3,0-3.7,1.8-3.7,4.9s1.3,5,3.7,5c1.9,0,2.9-1,3.6-2.7l3.7,1.1
				C116.6,222.1,114.3,223.7,111.6,224.1z"/>
		</g>
		<g class="st0">
			<path class="st1" d="M127.7,221.6h-5.5l-0.6,2.3h-4l5-15.6h4.9l5,15.6h-4.1L127.7,221.6z M122.5,206.8h-1.9c0.3-2,1.4-3.2,3-3.2
				c1.7,0,2.4,1,3,1c0.4,0,0.7-0.2,1-0.7h2c-0.2,2-1.5,3.1-3,3.1c-1.7,0-2.4-1-3-1C123,206.1,122.7,206.3,122.5,206.8z M124.9,211.2
				l-1.9,7.3h3.8L124.9,211.2z"/>
		</g>
		<g class="st0">
			<path class="st1" d="M148.3,216.1c0,5.6-3.8,8.2-8,8.2c-3.8,0-8-2.3-8-8.2c0-5.7,3.8-8.2,8-8.2
				C144.1,207.8,148.3,210,148.3,216.1z M136.4,216c0,3.2,1.4,5,3.9,5c2.2,0,3.9-1.7,3.9-5c0-3.1-1.4-5-3.9-5
				C138,211.1,136.4,212.8,136.4,216z"/>
			<path class="st1" d="M158.5,223.8h-3.9v-15.6h3.9V223.8z"/>
			<path class="st1" d="M174.4,223.8h-4.6l-5.2-9.7v9.7H161v-15.6h4.7l5.2,9.9v-9.9h3.5V223.8z"/>
			<path class="st1" d="M190.6,215.8c0,6.1-4,8-7.8,8h-5.9v-15.6h5.3C186.6,208.3,190.6,210.2,190.6,215.8z M180.8,211.4v9.3h2
				c1.8,0,3.8-0.9,3.8-4.9c0-2.8-1.2-4.4-4.3-4.4H180.8z"/>
			<path class="st1" d="M205.7,218c0,3.6-2.1,6.3-6.7,6.3c-4.6,0-6.6-2.8-6.6-6.3v-9.7h3.9v9.7c0,2.2,0.8,3.1,2.7,3.1
				c1.9,0,2.7-1.1,2.7-3.1v-9.7h3.9V218z"/>
		</g>
		<g class="st0">
			<path class="st1" d="M207,221.3l2.5-2.3c1.3,1.3,2.8,2,4.8,2c1.6,0,2.7-0.6,2.7-1.6c0-1-0.5-1.4-3.6-2c-3.8-0.7-5.6-2-5.6-4.9
				s2.5-4.7,6.3-4.7c3.1,0,5.3,1.2,6.7,2.8l-2.6,2.2c-0.9-1-2.1-1.7-4.1-1.7c-1.5,0-2.3,0.5-2.3,1.4c0,0.9,0.6,1.3,3.5,1.8
				c4,0.7,5.8,2,5.8,4.9c0,3.3-2.8,5-6.9,5C211.1,224.3,208.6,223.1,207,221.3z"/>
		</g>
		<g class="st0">
			<path class="st1" d="M233.7,211.5h-4.3v12.3h-3.9v-12.3h-4.3v-3.2h12.6V211.5z"/>
			<path class="st1" d="M247.5,213.2c0,2.1-1.1,3.5-3.1,4.3l4,6.3h-4.7l-3.2-5.7h-1.7v5.7h-3.9v-15.6h6.2
				C245.6,208.3,247.5,210.3,247.5,213.2z M238.8,211.4v3.8h2.3c1.4,0,2.3-0.5,2.3-2c0-1.3-0.8-1.9-2.2-1.9H238.8z"/>
			<path class="st1" d="M253.3,223.8h-3.9v-15.6h3.9V223.8z"/>
			<path class="st1" d="M264.4,221.6h-5.5l-0.6,2.3h-4l5-15.6h4.9l5,15.6H265L264.4,221.6z M261.7,211.2l-1.9,7.3h3.8L261.7,211.2z"
				/>
			<path class="st1" d="M274.1,220.5h6.6v3.3h-10.5v-15.6h3.9V220.5z"/>
		</g>
		<g class="st0">
			<path class="st1" d="M27.9,262.1h-3.8V251l-2.9,11.1h-3.6l-3.2-10.9v10.9h-3.6v-15.6h5.5l3.2,11.1l2.8-11.1h5.7V262.1z"/>
			<path class="st1" d="M38.9,259.8h-5.5l-0.6,2.3h-4l5-15.6h4.9l5,15.6h-4.1L38.9,259.8z M36.2,249.4l-1.9,7.3h3.8L36.2,249.4z"/>
			<path class="st1" d="M58,262.1h-4.6l-5.2-9.7v9.7h-3.5v-15.6h4.7l5.2,9.9v-9.9H58V262.1z"/>
			<path class="st1" d="M73.8,256.2c0,3.6-2.1,6.3-6.7,6.3c-4.6,0-6.6-2.8-6.6-6.3v-9.7h3.9v9.7c0,2.2,0.8,3.1,2.7,3.1
				c1.9,0,2.7-1.1,2.7-3.1v-9.7h3.9V256.2z"/>
			<path class="st1" d="M87.5,249.8h-4.3v12.3h-3.9v-12.3h-4.3v-3.2h12.6V249.8z"/>
			<path class="st1" d="M99.5,249.7h-6.8v2.9H99v3.1h-6.4v3.2h7v3.2H88.7v-15.6h10.7V249.7z"/>
			<path class="st1" d="M115,262.1h-4.6l-5.2-9.7v9.7h-3.5v-15.6h4.7l5.2,9.9v-9.9h3.5V262.1z"/>
		</g>
		<g class="st0">
			<path class="st1" d="M125.8,262.4l0,0.6c1.6,0.2,2.5,0.9,2.5,2.1c0,1.6-1.4,2.5-3.6,2.5c-1.2,0-2.1-0.3-3-0.7l0.8-1.8
				c0.6,0.2,1.2,0.4,1.8,0.4c0.6,0,1-0.1,1-0.6c0-0.6-0.7-0.8-2.3-0.8l0.3-1.8c-3.5-0.4-6.6-2.8-6.6-8.1c0-5.7,3.7-8.2,7.7-8.2
				c3,0,5.7,1.2,7.1,4.6l-3.8,1c-0.6-1.6-1.6-2.4-3.2-2.4c-2.3,0-3.7,1.8-3.7,4.9s1.3,5,3.7,5c1.9,0,2.9-1,3.6-2.7l3.7,1.1
				C130.8,260.4,128.6,262,125.8,262.4z"/>
		</g>
		<g class="st0">
			<path class="st1" d="M141.9,259.8h-5.5l-0.6,2.3h-4l5-15.6h4.9l5,15.6h-4.1L141.9,259.8z M136.7,245.1h-1.9c0.3-2,1.4-3.2,3-3.2
				c1.7,0,2.4,1,3,1c0.4,0,0.7-0.2,1-0.7h2c-0.2,2-1.5,3.1-3,3.1c-1.7,0-2.4-1-3-1C137.2,244.3,137,244.5,136.7,245.1z M139.2,249.4
				l-1.9,7.3h3.8L139.2,249.4z"/>
		</g>
		<g class="st0">
			<path class="st1" d="M162.5,254.3c0,5.6-3.8,8.2-8,8.2c-3.8,0-8-2.3-8-8.2c0-5.7,3.8-8.2,8-8.2
				C158.4,246.1,162.5,248.2,162.5,254.3z M150.6,254.3c0,3.2,1.4,5,3.9,5c2.2,0,3.9-1.7,3.9-5c0-3.1-1.4-5-3.9-5
				C152.2,249.3,150.6,251.1,150.6,254.3z"/>
			<path class="st1" d="M179.6,249.7h-6.8v2.9h6.4v3.1h-6.4v3.2h7v3.2h-10.9v-15.6h10.7V249.7z"/>
			<path class="st1" d="M203.2,262.1h-3.8V251l-2.9,11.1h-3.6l-3.2-10.9v10.9h-3.6v-15.6h5.5l3.2,11.1l2.8-11.1h5.7V262.1z"/>
			<path class="st1" d="M221,254.3c0,5.6-3.8,8.2-8,8.2c-3.8,0-8-2.3-8-8.2c0-5.7,3.8-8.2,8-8.2C216.9,246.1,221,248.2,221,254.3z
				 M209.1,254.3c0,3.2,1.4,5,3.9,5c2.2,0,3.9-1.7,3.9-5c0-3.1-1.4-5-3.9-5C210.7,249.3,209.1,251.1,209.1,254.3z"/>
			<path class="st1" d="M236.2,262.1h-4.6l-5.2-9.7v9.7h-3.5v-15.6h4.7l5.2,9.9v-9.9h3.5V262.1z"/>
		</g>
		<g class="st0">
			<path class="st1" d="M250.1,249.8h-4.3v12.3h-3.9v-12.3h-4.3v-3.2h12.6V249.8z"/>
		</g>
		<g class="st0">
			<path class="st1" d="M258.1,259.8h-5.5l-0.6,2.3h-4l5-15.6h4.9l5,15.6h-4.1L258.1,259.8z M255.3,249.4l-1.9,7.3h3.8L255.3,249.4z
				"/>
		</g>
		<g class="st0">
			<path class="st1" d="M277.4,250.3l-3.6,1.2c-0.7-1.5-1.7-2.3-3.4-2.3c-2.4,0-3.7,1.8-3.7,5.1c0,3.2,1.2,5.1,3.7,5.1
				c1.9,0,3.2-1.1,3.2-2.8v-0.5h-3.1v-2.8h7v8.7h-3.5v-1.4c-1.1,1.2-2.5,1.8-4.4,1.8c-3.5,0-7-2.2-7-8.1c0-5.7,3.6-8.3,7.7-8.3
				C273.5,246.1,276,247.4,277.4,250.3z"/>
			<path class="st1" d="M290.5,249.7h-6.8v2.9h6.4v3.1h-6.4v3.2h7v3.2h-10.9v-15.6h10.7V249.7z"/>
			<path class="st1" d="M309.7,262.1h-3.8V251l-2.9,11.1h-3.6l-3.2-10.9v10.9h-3.6v-15.6h5.5l3.2,11.1l2.8-11.1h5.7V262.1z"/>
		</g>
		<g class="st0">
			<path class="st1" d="M27.9,285.5h-3.8v-11.1l-2.9,11.1h-3.6l-3.2-10.9v10.9h-3.6V270h5.5l3.2,11.1l2.8-11.1h5.7V285.5z"/>
		</g>
		<g class="st0">
			<path class="st1" d="M38.9,283.3h-5.5l-0.6,2.3h-4l5-15.6h4.9l5,15.6h-4.1L38.9,283.3z M36.2,272.9l-1.9,7.3h3.8L36.2,272.9z
				 M37.7,268.8h-2.8l2.3-3.5h4.6L37.7,268.8z"/>
		</g>
		<g class="st0">
			<path class="st1" d="M59.5,277.8c0,2.8-1,4.9-2.8,6.3c0.9,0.6,1.8,0.8,3.1,1l-1.3,3.6c-2.3-0.6-3.6-1.8-4.6-3.2
				c-0.8,0.3-1.6,0.4-2.4,0.4c-3.8,0-8-2.3-8-8.2c0-5.7,3.8-8.2,8-8.2C55.4,269.5,59.5,271.6,59.5,277.8z M47.6,277.7
				c0,3.2,1.4,5,3.9,5c2.2,0,3.9-1.7,3.9-4.9c0-3.1-1.4-5-3.9-5C49.2,272.8,47.6,274.5,47.6,277.7z"/>
			<path class="st1" d="M74.6,279.7c0,3.6-2.1,6.3-6.7,6.3c-4.6,0-6.6-2.8-6.6-6.3V270h3.9v9.7c0,2.2,0.8,3.1,2.7,3.1
				c1.9,0,2.7-1.1,2.7-3.1V270h3.9V279.7z"/>
			<path class="st1" d="M80.9,285.5H77V270h3.9V285.5z"/>
			<path class="st1" d="M96.8,285.5h-4.6l-5.2-9.7v9.7h-3.5V270h4.7l5.2,9.9V270h3.5V285.5z"/>
			<path class="st1" d="M107.9,283.3h-5.5l-0.6,2.3h-4l5-15.6h4.9l5,15.6h-4.1L107.9,283.3z M105.1,272.9l-1.9,7.3h3.8L105.1,272.9z
				"/>
			<path class="st1" d="M112.4,283l2.5-2.3c1.3,1.3,2.8,2,4.9,2c1.6,0,2.7-0.6,2.7-1.6c0-1-0.5-1.4-3.6-2c-3.8-0.7-5.6-2-5.6-4.9
				s2.5-4.7,6.3-4.7c3.1,0,5.3,1.2,6.7,2.8l-2.6,2.2c-0.9-1-2.1-1.7-4.1-1.7c-1.5,0-2.3,0.5-2.3,1.4c0,0.9,0.6,1.3,3.5,1.8
				c4,0.7,5.8,2,5.8,4.9c0,3.3-2.8,5-6.9,5C116.6,286,114.1,284.8,112.4,283z"/>
			<path class="st1" d="M136.4,285.5h-3.9V270h3.9V285.5z"/>
			<path class="st1" d="M152.3,285.5h-4.6l-5.2-9.7v9.7h-3.5V270h4.7l5.2,9.9V270h3.5V285.5z"/>
			<path class="st1" d="M168.5,277.5c0,6.1-4,8-7.8,8h-5.9V270h5.3C164.5,270,168.5,271.9,168.5,277.5z M158.7,273.1v9.3h2
				c1.8,0,3.8-0.9,3.8-4.9c0-2.8-1.2-4.4-4.3-4.4H158.7z"/>
			<path class="st1" d="M183.6,279.7c0,3.6-2.1,6.3-6.7,6.3c-4.6,0-6.6-2.8-6.6-6.3V270h3.9v9.7c0,2.2,0.8,3.1,2.7,3.1
				c1.9,0,2.7-1.1,2.7-3.1V270h3.9V279.7z"/>
		</g>
		<g class="st0">
			<path class="st1" d="M184.9,283l2.5-2.3c1.3,1.3,2.8,2,4.9,2c1.6,0,2.7-0.6,2.7-1.6c0-1-0.5-1.4-3.6-2c-3.8-0.7-5.6-2-5.6-4.9
				s2.5-4.7,6.3-4.7c3.1,0,5.3,1.2,6.7,2.8l-2.6,2.2c-0.9-1-2.1-1.7-4.1-1.7c-1.5,0-2.3,0.5-2.3,1.4c0,0.9,0.6,1.3,3.5,1.8
				c4,0.7,5.8,2,5.8,4.9c0,3.3-2.8,5-6.9,5C189,286,186.6,284.8,184.9,283z"/>
		</g>
		<g class="st0">
			<path class="st1" d="M211.6,273.2h-4.3v12.3h-3.9v-12.3H199V270h12.6V273.2z"/>
			<path class="st1" d="M225.4,274.9c0,2.1-1.1,3.5-3.1,4.3l4,6.3h-4.7l-3.2-5.7h-1.7v5.7h-3.9V270h6.2
				C223.5,270,225.4,272,225.4,274.9z M216.7,273.1v3.8h2.3c1.4,0,2.3-0.5,2.3-2c0-1.3-0.8-1.9-2.2-1.9H216.7z"/>
			<path class="st1" d="M231.3,285.5h-3.9V270h3.9V285.5z"/>
			<path class="st1" d="M242.3,283.3h-5.5l-0.6,2.3h-4l5-15.6h4.9l5,15.6H243L242.3,283.3z M239.6,272.9l-1.9,7.3h3.8L239.6,272.9z"
				/>
			<path class="st1" d="M252,285.5h-3.9V270h3.9V285.5z"/>
			<path class="st1" d="M253.4,283l2.5-2.3c1.3,1.3,2.8,2,4.9,2c1.6,0,2.7-0.6,2.7-1.6c0-1-0.5-1.4-3.6-2c-3.8-0.7-5.6-2-5.6-4.9
				s2.5-4.7,6.3-4.7c3.1,0,5.3,1.2,6.7,2.8l-2.6,2.2c-0.9-1-2.1-1.7-4.1-1.7c-1.5,0-2.3,0.5-2.3,1.4c0,0.9,0.6,1.3,3.5,1.8
				c4,0.7,5.8,2,5.8,4.9c0,3.3-2.8,5-6.9,5C257.5,286,255,284.8,253.4,283z"/>
		</g>
		<g class="st0">
			<path class="st1" d="M19.4,377h-5.5l-0.6,2.3h-4l5-15.6h4.9l5,15.6H20L19.4,377z M16.6,366.6l-1.9,7.3h3.8L16.6,366.6z"/>
		</g>
		<g class="st0">
			<path class="st1" d="M38,373.4c0,3.6-2.1,6.3-6.7,6.3c-4.6,0-6.6-2.8-6.6-6.3v-9.7h3.9v9.7c0,2.2,0.8,3.1,2.7,3.1
				c1.9,0,2.7-1.1,2.7-3.1v-9.7H38V373.4z"/>
		</g>
		<g class="st0">
			<path class="st1" d="M51.7,366.9h-4.3v12.3h-3.9v-12.3h-4.3v-3.2h12.6V366.9z"/>
		</g>
		<g class="st0">
			<path class="st1" d="M68,371.5c0,5.6-3.8,8.2-8,8.2c-3.8,0-8-2.3-8-8.2c0-5.7,3.8-8.2,8-8.2C63.8,363.3,68,365.4,68,371.5z
				 M56.1,371.4c0,3.2,1.4,5,3.9,5c2.2,0,3.9-1.7,3.9-5c0-3.1-1.4-5-3.9-5C57.7,366.5,56.1,368.3,56.1,371.4z"/>
			<path class="st1" d="M82.4,368.7c0,2.1-1.1,3.5-3.1,4.3l4,6.3h-4.7l-3.2-5.7h-1.7v5.7h-3.9v-15.6H76
				C80.5,363.7,82.4,365.8,82.4,368.7z M73.7,366.8v3.8H76c1.4,0,2.3-0.5,2.3-2c0-1.3-0.8-1.9-2.2-1.9H73.7z"/>
			<path class="st1" d="M88.2,379.3h-3.9v-15.6h3.9V379.3z"/>
			<path class="st1" d="M102.2,366.7l-7.5,9.4h7.7v3.1H89.9v-3l7.5-9.5h-7.1v-3.1h11.8V366.7z"/>
			<path class="st1" d="M112.8,377h-5.5l-0.6,2.3h-4l5-15.6h4.9l5,15.6h-4.1L112.8,377z M110,366.6l-1.9,7.3h3.8L110,366.6z"/>
			<path class="st1" d="M132.3,371.3c0,6.1-4,8-7.8,8h-5.9v-15.6h5.3C128.2,363.7,132.3,365.7,132.3,371.3z M122.4,366.8v9.3h2
				c1.8,0,3.8-0.9,3.8-4.9c0-2.8-1.2-4.4-4.3-4.4H122.4z"/>
			<path class="st1" d="M149.4,371.5c0,5.6-3.8,8.2-8,8.2c-3.8,0-8-2.3-8-8.2c0-5.7,3.8-8.2,8-8.2
				C145.3,363.3,149.4,365.4,149.4,371.5z M137.5,371.4c0,3.2,1.4,5,3.9,5c2.2,0,3.9-1.7,3.9-5c0-3.1-1.4-5-3.9-5
				C139.1,366.5,137.5,368.3,137.5,371.4z"/>
		</g>
		<path class="st1" d="M293.6,340.7c0,0.1,0,0.2,0,0.4v8.6c-0.1,0-0.1,0-0.2,0c-0.1,0-0.2,0-0.4,0H185.2c-0.1,0.2-0.1,44.9,0,45.3
			h0.3h8.7l0,0l0,0l0,0v-36l0,0l0,0c0.2-0.1,8.7-0.1,9,0V395c0.2,0.1,8.7,0.1,9.1,0c0-0.6,0-1.2,0-1.9v-34.3c0.2-0.1,8.6-0.1,8.9,0
			c0.1,0.2,0.1,44.8,0,45.1h-44.8H176v-63.3H293.6z"/>
		<path class="st1" d="M176,413.1h108.6c0.1-0.3,0.1-8.8,0-9.1h-18c-0.1-0.2-0.1-44.8,0-45.1l0,0l0,0h0.2h26.7h0.1v63.2h-0.2H176
			V413.1z M284.6,395L284.6,395c0,0,0-0.1,0-0.2V368c0-0.1,0-0.1,0-0.2l0,0l0,0h-9c0,0.2,0,0.3,0,0.5v26.2c0,0.1,0,0.2,0,0.3
			c0,0.1,0,0.1,0,0.2C275.9,395,284.4,395,284.6,395z"/>
		<path class="st1" d="M257.4,385.9h-18.1c0,0.1,0,0.2,0,0.3v8.6c0,0.1,0.1,0.2,0.1,0.2c0,0,0,0,0,0h17.8c0.1,0.2,0.1,8.6,0,9h-27
			l0,0l0,0c0-0.1,0-0.1,0-0.2v-44.9c0,0,0,0,0-0.1c0.2-0.1,26.8-0.1,27,0L257.4,385.9z M248.4,376.9c0-0.1,0-0.1,0-0.2V368
			c0,0,0,0,0-0.1l0,0l0,0c-0.4-0.1-8.8,0-9,0c-0.1,0.3-0.1,8.8,0,9L248.4,376.9z"/>
		<g class="st0">
			<path class="st1" d="M2.7,39.9l1.8-3.9c2.6,2.3,7,4,11.4,4c6,0,8.6-2.3,8.6-5.3c0-8.5-21-3.1-21-16c0-5.3,4.2-9.9,13.3-9.9
				c4.1,0,8.3,1.1,11.1,3.1l-1.6,4c-3-1.9-6.4-2.8-9.5-2.8c-5.9,0-8.4,2.5-8.4,5.5c0,8.5,21,3.2,21,15.9c0,5.3-4.3,9.8-13.4,9.8
				C10.6,44.3,5.4,42.5,2.7,39.9z"/>
			<path class="st1" d="M33.7,26.6c0-10.1,7.8-17.7,18.5-17.7c10.5,0,18.4,7.5,18.4,17.7c0,10.2-7.8,17.7-18.4,17.7
				C41.5,44.3,33.7,36.7,33.7,26.6z M65.6,26.6c0-7.7-5.7-13.3-13.4-13.3c-7.8,0-13.5,5.6-13.5,13.3s5.7,13.3,13.5,13.3
				C59.9,39.9,65.6,34.2,65.6,26.6z"/>
		</g>
		<g class="st0">
			<path class="st1" d="M78.1,9.3h4.9v30.3h18.8v4.3H78.1V9.3z"/>
		</g>
		<g class="st0">
			<path class="st1" d="M106.6,28.9V9.3h4.9v19.5c0,7.7,3.5,11.1,9.7,11.1s9.8-3.5,9.8-11.1V9.3h4.8v19.7c0,10-5.5,15.3-14.6,15.3
				C112.2,44.3,106.6,39,106.6,28.9z"/>
		</g>
		<g class="st0">
			<path class="st1" d="M171.5,35.7l3.2,3.1c-3.1,3.5-7.6,5.3-12.9,5.4l-0.5,2.1c2.9,0.3,4.3,1.9,4.3,4.1c0,2.8-2.4,4.5-6.1,4.5
				c-1.7,0-3.2-0.3-4.4-1.1l1-2.4c1,0.6,2.1,0.8,3.4,0.8c1.9,0,2.8-0.7,2.8-2c0-1.1-0.8-1.9-2.8-1.9h-1.3l1.1-4.3
				c-9.3-1-16-8.1-16-17.6c0-10.2,7.8-17.7,18.4-17.7c5.3,0,10,1.8,13.2,5.4l-3.2,3.1c-2.7-2.8-5.9-4.1-9.7-4.1
				c-7.8,0-13.6,5.6-13.6,13.3s5.8,13.3,13.6,13.3C165.6,39.9,168.9,38.5,171.5,35.7z"/>
		</g>
		<g class="st0">
			<path class="st1" d="M178.3,26.6c0-10.1,7.8-17.7,18.5-17.7c10.5,0,18.4,7.5,18.4,17.7c0,10.2-7.8,17.7-18.4,17.7
				C186.1,44.3,178.3,36.7,178.3,26.6z M210.1,26.6c0-7.7-5.7-13.3-13.4-13.3c-7.8,0-13.5,5.6-13.5,13.3s5.7,13.3,13.5,13.3
				C204.4,39.9,210.1,34.2,210.1,26.6z M193.6,3c-1.4,0-2.4,1.1-2.5,3.1h-2.7c0.1-3.7,2-6,4.8-6c3.2,0,4.8,3.4,6.6,3.4
				c1.4,0,2.4-1.1,2.5-3h2.7c-0.1,3.5-2,5.9-4.8,5.9C197,6.3,195.4,3,193.6,3z"/>
			<path class="st1" d="M247.8,39.6v4.3h-25.1V9.3h24.4v4.3h-19.5v10.6H245v4.2h-17.4v11.2H247.8z"/>
			<path class="st1" d="M252.6,39.9l1.8-3.9c2.6,2.3,7,4,11.4,4c6,0,8.6-2.3,8.6-5.3c0-8.5-21-3.1-21-16c0-5.3,4.2-9.9,13.3-9.9
				c4.1,0,8.3,1.1,11.1,3.1l-1.6,4c-3-1.9-6.4-2.8-9.5-2.8c-5.9,0-8.4,2.5-8.4,5.5c0,8.5,21,3.2,21,15.9c0,5.3-4.3,9.8-13.4,9.8
				C260.6,44.3,255.4,42.5,252.6,39.9z"/>
		</g>
		<g class="st0">
			<path class="st1" d="M13.8,66.6V72h16.4V80H13.8v5.5h18.6v7.9H3.5V58.7h28.4v7.9H13.8z"/>
			<path class="st1" d="M83.3,76.3v17.1h-10V79.2c0-2.7-1.5-4.4-3.7-4.4c-2.6,0-4.2,2.2-4.2,5.2v13.3h-10V79.2
				c0-2.7-1.5-4.4-3.7-4.4c-2.6,0-4.3,2.2-4.3,5.2v13.3h-10V66.5h10v4.1c1.8-2.9,4.7-4.5,8.4-4.5c4.2,0,7.4,2.2,8.9,5.8
				c1.7-3.8,4.9-5.8,9.1-5.8C79.4,66.1,83.3,70.1,83.3,76.3z"/>
			<path class="st1" d="M117.8,92.1c-1.9,1.1-4.8,1.7-7.5,1.7c-5.7,0-9.6-3.3-9.6-8.9V74.2h-3.7v-6.4h3.7v-7.5h9.9v7.5h6.6v6.4h-6.6
				v9.2c0,1.7,0.9,2.6,2.3,2.6c0.8,0,1.9-0.3,3.1-0.8L117.8,92.1z"/>
			<path class="st1" d="M147.7,82.3h-18.1c0.8,2.6,2.7,4,5.2,4c2.1,0,4.2-0.9,5.9-2.6l5.2,5.1c-2.8,3.1-6.9,4.8-12,4.8
				c-9,0-14.5-5.4-14.5-13.7c0-8.4,5.7-13.9,14.2-13.9C143.2,66.1,148.3,72.4,147.7,82.3z M137.9,77.4c0-2.7-1.6-4.6-4.1-4.6
				c-2.3,0-3.9,1.8-4.4,4.6H137.9z"/>
			<path class="st1" d="M176.2,73.1l-7.7,3.8c-0.9-1.7-2.4-2.7-4.3-2.7c-2.7,0-4.5,2.3-4.5,5.7c0,3.5,1.8,5.8,4.5,5.8
				c1.9,0,3.4-0.9,4.3-3l7.8,3.9c-2.1,4.5-6.6,7-12.6,7c-8.5,0-14-5.4-14-13.7c0-8.4,5.6-13.9,14.1-13.9
				C169.4,66.1,173.9,68.7,176.2,73.1z"/>
			<path class="st1" d="M207.8,76.3v17.1h-10V79.2c0-2.7-1.5-4.4-3.9-4.4c-2.7,0-4.4,2.2-4.4,5.2v13.3h-10V66.5h10v4.2
				c1.9-3,4.8-4.6,8.6-4.6C203.8,66.1,207.8,70.1,207.8,76.3z"/>
			<path class="st1" d="M240.9,79.9c0,8.3-5.9,13.8-14.9,13.8s-15-5.5-15-13.8c0-8.4,5.9-13.8,15-13.8S240.9,71.5,240.9,79.9z
				 M221.1,80c0,3.6,1.9,6,4.9,6c2.9,0,4.8-2.4,4.8-6c0-3.6-1.9-6-4.8-6C223,74,221.1,76.4,221.1,80z"/>
			<path class="st1" d="M245.2,93.4V56.7h10v36.7H245.2z"/>
			<path class="st1" d="M289.3,79.9c0,8.3-5.9,13.8-14.9,13.8s-15-5.5-15-13.8c0-8.4,5.9-13.8,15-13.8S289.3,71.5,289.3,79.9z
				 M269.5,80c0,3.6,1.9,6,4.9,6c2.9,0,4.8-2.4,4.8-6c0-3.6-1.9-6-4.8-6C271.4,74,269.5,76.4,269.5,80z"/>
			<path class="st1" d="M319.6,91c0,7.6-6,12.4-14.8,12.4c-5,0-9.5-1.6-12.4-3.5l3.3-6.7c2.4,1.6,5.5,2.5,8.3,2.5
				c3.6,0,5.7-1.7,5.7-4.3v-2.7c-1.7,2.1-4.2,3.2-7.2,3.2c-6.5,0-11.3-5.1-11.3-13c0-7.7,4.6-12.7,11.1-12.7c3.2,0,5.7,1.2,7.4,3.3
				v-2.9h9.9V91z M309.7,79.1c0-3.4-1.8-5.6-4.6-5.6c-2.7,0-4.6,2.3-4.6,5.6c0,3.3,1.8,5.5,4.6,5.5
				C307.9,84.7,309.7,82.4,309.7,79.1z"/>
			<path class="st1" d="M335.7,58.8c0,3-2.1,5.1-5.1,5.1s-5.1-2.1-5.1-5.1s2.1-5.1,5.1-5.1S335.7,55.8,335.7,58.8z M325.5,93.4V66.5
				h10v26.9H325.5z"/>
			<path class="st1" d="M366.3,75.9v17.5h-9.8v-3c-1.6,2.2-4.3,3.4-7.9,3.4c-5.7,0-9.1-3.4-9.1-8.5c0-5.2,3.6-8.1,10.4-8.2h6.6v-0.1
				c0-2.2-1.6-3.6-4.7-3.6c-2.1,0-5.1,0.6-8.1,1.9l-2.5-6.6c4.4-1.8,8.8-2.8,13-2.8C361.8,66.1,366.3,69.7,366.3,75.9z M356.5,84.5
				v-2.4h-4.6c-2,0-3,0.8-3,2.5s1.1,2.7,3,2.7C354,87.3,355.7,86.2,356.5,84.5z"/>
		</g>
		<rect x="0.6" y="166.6" class="st2" width="3.5" height="132.5"/>
		<g class="st0">
			<path class="st1" d="M23.5,175.3c0,3.4-2.2,5.3-6.6,5.3h-2.2v4.9h-3.9V170h6.1C21.5,170,23.5,172.1,23.5,175.3z M19.4,175.3
				c0-1.3-0.8-2.1-2.3-2.1h-2.4v4.4H17C18.4,177.6,19.4,177,19.4,175.3z"/>
		</g>
		<g class="st0">
			<path class="st1" d="M32.5,183.3H27l-0.6,2.3h-4l5-15.6h4.9l5,15.6h-4.1L32.5,183.3z M29.8,172.9l-1.9,7.3h3.8L29.8,172.9z"/>
			<path class="st1" d="M42.2,185.6h-3.9V170h3.9V185.6z"/>
			<path class="st1" d="M58.1,185.6h-4.6l-5.2-9.7v9.7h-3.5V170h4.7l5.2,9.9V170h3.5V185.6z"/>
			<path class="st1" d="M71.3,173.2h-6.8v2.9h6.4v3.1h-6.4v3.2h7v3.2H60.6V170h10.7V173.2z M67.3,168.8h-2.8l2.3-3.5h4.6L67.3,168.8
				z"/>
			<path class="st1" d="M77.4,185.6h-3.9V170h3.9V185.6z"/>
			<path class="st1" d="M78.7,183.1l2.5-2.3c1.3,1.3,2.8,2,4.9,2c1.6,0,2.7-0.6,2.7-1.6c0-1-0.5-1.4-3.6-2c-3.8-0.7-5.6-2-5.6-4.9
				s2.5-4.7,6.3-4.7c3.1,0,5.3,1.2,6.7,2.8l-2.6,2.2c-0.9-1-2.1-1.7-4.1-1.7c-1.5,0-2.3,0.5-2.3,1.4c0,0.9,0.6,1.3,3.5,1.8
				c4,0.7,5.8,2,5.8,4.9c0,3.3-2.8,5-6.9,5C82.9,186,80.4,184.9,78.7,183.1z"/>
			<path class="st1" d="M109.5,173.2h-6.8v2.9h6.4v3.1h-6.4v3.2h7v3.2H98.8V170h10.7V173.2z"/>
			<path class="st1" d="M115.6,182.2h6.6v3.3h-10.5V170h3.9V182.2z"/>
			<path class="st1" d="M134.3,173.2h-6.8v2.9h6.4v3.1h-6.4v3.2h7v3.2h-10.9V170h10.7V173.2z"/>
			<path class="st1" d="M147.8,173.2h-4.3v12.3h-3.9v-12.3h-4.3V170h12.6V173.2z"/>
			<path class="st1" d="M161.7,174.9c0,2.1-1.1,3.5-3.1,4.3l4,6.3h-4.7l-3.2-5.7H153v5.7H149V170h6.2
				C159.7,170,161.7,172.1,161.7,174.9z M153,173.1v3.8h2.3c1.4,0,2.3-0.5,2.3-2c0-1.3-0.8-1.9-2.2-1.9H153z"/>
			<path class="st1" d="M178.8,177.8c0,5.6-3.8,8.2-8,8.2c-3.8,0-8-2.3-8-8.2c0-5.7,3.8-8.2,8-8.2
				C174.7,169.6,178.8,171.7,178.8,177.8z M175.9,168.8h-3.4l-1.7-1.4l-1.6,1.4h-3.4l3.1-3.4h3.8L175.9,168.8z M166.9,177.7
				c0,3.2,1.4,5,3.9,5c2.2,0,3.9-1.7,3.9-5c0-3.1-1.4-5-3.9-5C168.5,172.8,166.9,174.5,166.9,177.7z"/>
			<path class="st1" d="M194,185.6h-4.6l-5.2-9.7v9.7h-3.5V170h4.7l5.2,9.9V170h3.5V185.6z"/>
			<path class="st1" d="M200.5,185.6h-3.9V170h3.9V185.6z"/>
		</g>
		<g class="st0">
			<path class="st1" d="M217.1,174.2l-3.8,1c-0.6-1.6-1.6-2.4-3.2-2.4c-2.3,0-3.7,1.8-3.7,4.9s1.3,5,3.7,5c1.9,0,2.9-1,3.6-2.7
				l3.7,1.1c-1.2,3.2-4.1,4.8-7.4,4.8c-3.9,0-7.7-2.4-7.7-8.2c0-5.7,3.7-8.2,7.7-8.2C213,169.6,215.8,170.8,217.1,174.2z"/>
			<path class="st1" d="M234,177.8c0,5.6-3.8,8.2-8,8.2c-3.8,0-8-2.3-8-8.2c0-5.7,3.8-8.2,8-8.2C229.9,169.6,234,171.7,234,177.8z
				 M222.1,177.7c0,3.2,1.4,5,3.9,5c2.2,0,3.9-1.7,3.9-5c0-3.1-1.4-5-3.9-5C223.7,172.8,222.1,174.5,222.1,177.7z"/>
		</g>
		<g class="st0">
			<path class="st1" d="M234.7,183.1l2.5-2.3c1.3,1.3,2.8,2,4.9,2c1.6,0,2.7-0.6,2.7-1.6c0-1-0.5-1.4-3.6-2c-3.8-0.7-5.6-2-5.6-4.9
				s2.5-4.7,6.3-4.7c3.1,0,5.3,1.2,6.7,2.8l-2.6,2.2c-0.9-1-2.1-1.7-4.1-1.7c-1.5,0-2.3,0.5-2.3,1.4c0,0.9,0.6,1.3,3.5,1.8
				c4,0.7,5.8,2,5.8,4.9c0,3.3-2.8,5-6.9,5C238.8,186,236.3,184.9,234.7,183.1z"/>
		</g>
		<g class="st0">
			<path class="st1" d="M19.4,221.6h-5.5l-0.6,2.3h-4l5-15.6h4.9l5,15.6H20L19.4,221.6z M16.6,211.2l-1.9,7.3h3.8L16.6,211.2z"/>
		</g>
		<g class="st0">
			<path class="st1" d="M38,218c0,3.6-2.1,6.3-6.7,6.3c-4.6,0-6.6-2.8-6.6-6.3v-9.7h3.9v9.7c0,2.2,0.8,3.1,2.7,3.1
				c1.9,0,2.7-1.1,2.7-3.1v-9.7H38V218z"/>
		</g>
		<g class="st0">
			<path class="st1" d="M51.7,211.5h-4.3v12.3h-3.9v-12.3h-4.3v-3.2h12.6V211.5z"/>
		</g>
		<g class="st0">
			<path class="st1" d="M68,216.1c0,5.6-3.8,8.2-8,8.2c-3.8,0-8-2.3-8-8.2c0-5.7,3.8-8.2,8-8.2C63.8,207.8,68,210,68,216.1z
				 M56.1,216c0,3.2,1.4,5,3.9,5c2.2,0,3.9-1.7,3.9-5c0-3.1-1.4-5-3.9-5C57.7,211.1,56.1,212.8,56.1,216z"/>
			<path class="st1" d="M86.9,223.8h-3.8v-11.1l-2.9,11.1h-3.6l-3.2-10.9v10.9h-3.6v-15.6h5.5l3.2,11.1l2.8-11.1h5.7V223.8z"/>
		</g>
		<g class="st0">
			<path class="st1" d="M97.9,221.6h-5.5l-0.6,2.3h-4l5-15.6h4.9l5,15.6h-4.1L97.9,221.6z M95.2,211.2l-1.9,7.3h3.8L95.2,211.2z"/>
		</g>
		<g class="st0">
			<path class="st1" d="M111.6,224.1l0,0.6c1.6,0.2,2.5,0.9,2.5,2.1c0,1.6-1.4,2.5-3.6,2.5c-1.2,0-2.1-0.3-3-0.7l0.8-1.8
				c0.6,0.2,1.2,0.4,1.8,0.4c0.6,0,1-0.1,1-0.6c0-0.6-0.7-0.8-2.3-0.8l0.3-1.8c-3.5-0.4-6.6-2.8-6.6-8.1c0-5.7,3.7-8.2,7.7-8.2
				c3,0,5.7,1.2,7.1,4.6l-3.8,1c-0.6-1.6-1.6-2.4-3.2-2.4c-2.3,0-3.7,1.8-3.7,4.9s1.3,5,3.7,5c1.9,0,2.9-1,3.6-2.7l3.7,1.1
				C116.6,222.1,114.3,223.7,111.6,224.1z"/>
		</g>
		<g class="st0">
			<path class="st1" d="M127.7,221.6h-5.5l-0.6,2.3h-4l5-15.6h4.9l5,15.6h-4.1L127.7,221.6z M122.5,206.8h-1.9c0.3-2,1.4-3.2,3-3.2
				c1.7,0,2.4,1,3,1c0.4,0,0.7-0.2,1-0.7h2c-0.2,2-1.5,3.1-3,3.1c-1.7,0-2.4-1-3-1C123,206.1,122.7,206.3,122.5,206.8z M124.9,211.2
				l-1.9,7.3h3.8L124.9,211.2z"/>
		</g>
		<g class="st0">
			<path class="st1" d="M148.3,216.1c0,5.6-3.8,8.2-8,8.2c-3.8,0-8-2.3-8-8.2c0-5.7,3.8-8.2,8-8.2
				C144.1,207.8,148.3,210,148.3,216.1z M136.4,216c0,3.2,1.4,5,3.9,5c2.2,0,3.9-1.7,3.9-5c0-3.1-1.4-5-3.9-5
				C138,211.1,136.4,212.8,136.4,216z"/>
			<path class="st1" d="M158.5,223.8h-3.9v-15.6h3.9V223.8z"/>
			<path class="st1" d="M174.4,223.8h-4.6l-5.2-9.7v9.7H161v-15.6h4.7l5.2,9.9v-9.9h3.5V223.8z"/>
			<path class="st1" d="M190.6,215.8c0,6.1-4,8-7.8,8h-5.9v-15.6h5.3C186.6,208.3,190.6,210.2,190.6,215.8z M180.8,211.4v9.3h2
				c1.8,0,3.8-0.9,3.8-4.9c0-2.8-1.2-4.4-4.3-4.4H180.8z"/>
			<path class="st1" d="M205.7,218c0,3.6-2.1,6.3-6.7,6.3c-4.6,0-6.6-2.8-6.6-6.3v-9.7h3.9v9.7c0,2.2,0.8,3.1,2.7,3.1
				c1.9,0,2.7-1.1,2.7-3.1v-9.7h3.9V218z"/>
		</g>
		<g class="st0">
			<path class="st1" d="M207,221.3l2.5-2.3c1.3,1.3,2.8,2,4.8,2c1.6,0,2.7-0.6,2.7-1.6c0-1-0.5-1.4-3.6-2c-3.8-0.7-5.6-2-5.6-4.9
				s2.5-4.7,6.3-4.7c3.1,0,5.3,1.2,6.7,2.8l-2.6,2.2c-0.9-1-2.1-1.7-4.1-1.7c-1.5,0-2.3,0.5-2.3,1.4c0,0.9,0.6,1.3,3.5,1.8
				c4,0.7,5.8,2,5.8,4.9c0,3.3-2.8,5-6.9,5C211.1,224.3,208.6,223.1,207,221.3z"/>
		</g>
		<g class="st0">
			<path class="st1" d="M233.7,211.5h-4.3v12.3h-3.9v-12.3h-4.3v-3.2h12.6V211.5z"/>
			<path class="st1" d="M247.5,213.2c0,2.1-1.1,3.5-3.1,4.3l4,6.3h-4.7l-3.2-5.7h-1.7v5.7h-3.9v-15.6h6.2
				C245.6,208.3,247.5,210.3,247.5,213.2z M238.8,211.4v3.8h2.3c1.4,0,2.3-0.5,2.3-2c0-1.3-0.8-1.9-2.2-1.9H238.8z"/>
			<path class="st1" d="M253.3,223.8h-3.9v-15.6h3.9V223.8z"/>
			<path class="st1" d="M264.4,221.6h-5.5l-0.6,2.3h-4l5-15.6h4.9l5,15.6H265L264.4,221.6z M261.7,211.2l-1.9,7.3h3.8L261.7,211.2z"
				/>
			<path class="st1" d="M274.1,220.5h6.6v3.3h-10.5v-15.6h3.9V220.5z"/>
		</g>
		<g class="st0">
			<path class="st1" d="M27.9,262.1h-3.8V251l-2.9,11.1h-3.6l-3.2-10.9v10.9h-3.6v-15.6h5.5l3.2,11.1l2.8-11.1h5.7V262.1z"/>
			<path class="st1" d="M38.9,259.8h-5.5l-0.6,2.3h-4l5-15.6h4.9l5,15.6h-4.1L38.9,259.8z M36.2,249.4l-1.9,7.3h3.8L36.2,249.4z"/>
			<path class="st1" d="M58,262.1h-4.6l-5.2-9.7v9.7h-3.5v-15.6h4.7l5.2,9.9v-9.9H58V262.1z"/>
			<path class="st1" d="M73.8,256.2c0,3.6-2.1,6.3-6.7,6.3c-4.6,0-6.6-2.8-6.6-6.3v-9.7h3.9v9.7c0,2.2,0.8,3.1,2.7,3.1
				c1.9,0,2.7-1.1,2.7-3.1v-9.7h3.9V256.2z"/>
			<path class="st1" d="M87.5,249.8h-4.3v12.3h-3.9v-12.3h-4.3v-3.2h12.6V249.8z"/>
			<path class="st1" d="M99.5,249.7h-6.8v2.9H99v3.1h-6.4v3.2h7v3.2H88.7v-15.6h10.7V249.7z"/>
			<path class="st1" d="M115,262.1h-4.6l-5.2-9.7v9.7h-3.5v-15.6h4.7l5.2,9.9v-9.9h3.5V262.1z"/>
		</g>
		<g class="st0">
			<path class="st1" d="M125.8,262.4l0,0.6c1.6,0.2,2.5,0.9,2.5,2.1c0,1.6-1.4,2.5-3.6,2.5c-1.2,0-2.1-0.3-3-0.7l0.8-1.8
				c0.6,0.2,1.2,0.4,1.8,0.4c0.6,0,1-0.1,1-0.6c0-0.6-0.7-0.8-2.3-0.8l0.3-1.8c-3.5-0.4-6.6-2.8-6.6-8.1c0-5.7,3.7-8.2,7.7-8.2
				c3,0,5.7,1.2,7.1,4.6l-3.8,1c-0.6-1.6-1.6-2.4-3.2-2.4c-2.3,0-3.7,1.8-3.7,4.9s1.3,5,3.7,5c1.9,0,2.9-1,3.6-2.7l3.7,1.1
				C130.8,260.4,128.6,262,125.8,262.4z"/>
		</g>
		<g class="st0">
			<path class="st1" d="M141.9,259.8h-5.5l-0.6,2.3h-4l5-15.6h4.9l5,15.6h-4.1L141.9,259.8z M136.7,245.1h-1.9c0.3-2,1.4-3.2,3-3.2
				c1.7,0,2.4,1,3,1c0.4,0,0.7-0.2,1-0.7h2c-0.2,2-1.5,3.1-3,3.1c-1.7,0-2.4-1-3-1C137.2,244.3,137,244.5,136.7,245.1z M139.2,249.4
				l-1.9,7.3h3.8L139.2,249.4z"/>
		</g>
		<g class="st0">
			<path class="st1" d="M162.5,254.3c0,5.6-3.8,8.2-8,8.2c-3.8,0-8-2.3-8-8.2c0-5.7,3.8-8.2,8-8.2
				C158.4,246.1,162.5,248.2,162.5,254.3z M150.6,254.3c0,3.2,1.4,5,3.9,5c2.2,0,3.9-1.7,3.9-5c0-3.1-1.4-5-3.9-5
				C152.2,249.3,150.6,251.1,150.6,254.3z"/>
			<path class="st1" d="M179.6,249.7h-6.8v2.9h6.4v3.1h-6.4v3.2h7v3.2h-10.9v-15.6h10.7V249.7z"/>
			<path class="st1" d="M203.2,262.1h-3.8V251l-2.9,11.1h-3.6l-3.2-10.9v10.9h-3.6v-15.6h5.5l3.2,11.1l2.8-11.1h5.7V262.1z"/>
			<path class="st1" d="M221,254.3c0,5.6-3.8,8.2-8,8.2c-3.8,0-8-2.3-8-8.2c0-5.7,3.8-8.2,8-8.2C216.9,246.1,221,248.2,221,254.3z
				 M209.1,254.3c0,3.2,1.4,5,3.9,5c2.2,0,3.9-1.7,3.9-5c0-3.1-1.4-5-3.9-5C210.7,249.3,209.1,251.1,209.1,254.3z"/>
			<path class="st1" d="M236.2,262.1h-4.6l-5.2-9.7v9.7h-3.5v-15.6h4.7l5.2,9.9v-9.9h3.5V262.1z"/>
		</g>
		<g class="st0">
			<path class="st1" d="M250.1,249.8h-4.3v12.3h-3.9v-12.3h-4.3v-3.2h12.6V249.8z"/>
		</g>
		<g class="st0">
			<path class="st1" d="M258.1,259.8h-5.5l-0.6,2.3h-4l5-15.6h4.9l5,15.6h-4.1L258.1,259.8z M255.3,249.4l-1.9,7.3h3.8L255.3,249.4z
				"/>
		</g>
		<g class="st0">
			<path class="st1" d="M277.4,250.3l-3.6,1.2c-0.7-1.5-1.7-2.3-3.4-2.3c-2.4,0-3.7,1.8-3.7,5.1c0,3.2,1.2,5.1,3.7,5.1
				c1.9,0,3.2-1.1,3.2-2.8v-0.5h-3.1v-2.8h7v8.7h-3.5v-1.4c-1.1,1.2-2.5,1.8-4.4,1.8c-3.5,0-7-2.2-7-8.1c0-5.7,3.6-8.3,7.7-8.3
				C273.5,246.1,276,247.4,277.4,250.3z"/>
			<path class="st1" d="M290.5,249.7h-6.8v2.9h6.4v3.1h-6.4v3.2h7v3.2h-10.9v-15.6h10.7V249.7z"/>
			<path class="st1" d="M309.7,262.1h-3.8V251l-2.9,11.1h-3.6l-3.2-10.9v10.9h-3.6v-15.6h5.5l3.2,11.1l2.8-11.1h5.7V262.1z"/>
		</g>
		<g class="st0">
			<path class="st1" d="M27.9,285.5h-3.8v-11.1l-2.9,11.1h-3.6l-3.2-10.9v10.9h-3.6V270h5.5l3.2,11.1l2.8-11.1h5.7V285.5z"/>
		</g>
		<g class="st0">
			<path class="st1" d="M38.9,283.3h-5.5l-0.6,2.3h-4l5-15.6h4.9l5,15.6h-4.1L38.9,283.3z M36.2,272.9l-1.9,7.3h3.8L36.2,272.9z
				 M37.7,268.8h-2.8l2.3-3.5h4.6L37.7,268.8z"/>
		</g>
		<g class="st0">
			<path class="st1" d="M59.5,277.8c0,2.8-1,4.9-2.8,6.3c0.9,0.6,1.8,0.8,3.1,1l-1.3,3.6c-2.3-0.6-3.6-1.8-4.6-3.2
				c-0.8,0.3-1.6,0.4-2.4,0.4c-3.8,0-8-2.3-8-8.2c0-5.7,3.8-8.2,8-8.2C55.4,269.5,59.5,271.6,59.5,277.8z M47.6,277.7
				c0,3.2,1.4,5,3.9,5c2.2,0,3.9-1.7,3.9-4.9c0-3.1-1.4-5-3.9-5C49.2,272.8,47.6,274.5,47.6,277.7z"/>
			<path class="st1" d="M74.6,279.7c0,3.6-2.1,6.3-6.7,6.3c-4.6,0-6.6-2.8-6.6-6.3V270h3.9v9.7c0,2.2,0.8,3.1,2.7,3.1
				c1.9,0,2.7-1.1,2.7-3.1V270h3.9V279.7z"/>
			<path class="st1" d="M80.9,285.5H77V270h3.9V285.5z"/>
			<path class="st1" d="M96.8,285.5h-4.6l-5.2-9.7v9.7h-3.5V270h4.7l5.2,9.9V270h3.5V285.5z"/>
			<path class="st1" d="M107.9,283.3h-5.5l-0.6,2.3h-4l5-15.6h4.9l5,15.6h-4.1L107.9,283.3z M105.1,272.9l-1.9,7.3h3.8L105.1,272.9z
				"/>
			<path class="st1" d="M112.4,283l2.5-2.3c1.3,1.3,2.8,2,4.9,2c1.6,0,2.7-0.6,2.7-1.6c0-1-0.5-1.4-3.6-2c-3.8-0.7-5.6-2-5.6-4.9
				s2.5-4.7,6.3-4.7c3.1,0,5.3,1.2,6.7,2.8l-2.6,2.2c-0.9-1-2.1-1.7-4.1-1.7c-1.5,0-2.3,0.5-2.3,1.4c0,0.9,0.6,1.3,3.5,1.8
				c4,0.7,5.8,2,5.8,4.9c0,3.3-2.8,5-6.9,5C116.6,286,114.1,284.8,112.4,283z"/>
			<path class="st1" d="M136.4,285.5h-3.9V270h3.9V285.5z"/>
			<path class="st1" d="M152.3,285.5h-4.6l-5.2-9.7v9.7h-3.5V270h4.7l5.2,9.9V270h3.5V285.5z"/>
			<path class="st1" d="M168.5,277.5c0,6.1-4,8-7.8,8h-5.9V270h5.3C164.5,270,168.5,271.9,168.5,277.5z M158.7,273.1v9.3h2
				c1.8,0,3.8-0.9,3.8-4.9c0-2.8-1.2-4.4-4.3-4.4H158.7z"/>
			<path class="st1" d="M183.6,279.7c0,3.6-2.1,6.3-6.7,6.3c-4.6,0-6.6-2.8-6.6-6.3V270h3.9v9.7c0,2.2,0.8,3.1,2.7,3.1
				c1.9,0,2.7-1.1,2.7-3.1V270h3.9V279.7z"/>
		</g>
		<g class="st0">
			<path class="st1" d="M184.9,283l2.5-2.3c1.3,1.3,2.8,2,4.9,2c1.6,0,2.7-0.6,2.7-1.6c0-1-0.5-1.4-3.6-2c-3.8-0.7-5.6-2-5.6-4.9
				s2.5-4.7,6.3-4.7c3.1,0,5.3,1.2,6.7,2.8l-2.6,2.2c-0.9-1-2.1-1.7-4.1-1.7c-1.5,0-2.3,0.5-2.3,1.4c0,0.9,0.6,1.3,3.5,1.8
				c4,0.7,5.8,2,5.8,4.9c0,3.3-2.8,5-6.9,5C189,286,186.6,284.8,184.9,283z"/>
		</g>
		<g class="st0">
			<path class="st1" d="M211.6,273.2h-4.3v12.3h-3.9v-12.3H199V270h12.6V273.2z"/>
			<path class="st1" d="M225.4,274.9c0,2.1-1.1,3.5-3.1,4.3l4,6.3h-4.7l-3.2-5.7h-1.7v5.7h-3.9V270h6.2
				C223.5,270,225.4,272,225.4,274.9z M216.7,273.1v3.8h2.3c1.4,0,2.3-0.5,2.3-2c0-1.3-0.8-1.9-2.2-1.9H216.7z"/>
			<path class="st1" d="M231.3,285.5h-3.9V270h3.9V285.5z"/>
			<path class="st1" d="M242.3,283.3h-5.5l-0.6,2.3h-4l5-15.6h4.9l5,15.6H243L242.3,283.3z M239.6,272.9l-1.9,7.3h3.8L239.6,272.9z"
				/>
			<path class="st1" d="M252,285.5h-3.9V270h3.9V285.5z"/>
			<path class="st1" d="M253.4,283l2.5-2.3c1.3,1.3,2.8,2,4.9,2c1.6,0,2.7-0.6,2.7-1.6c0-1-0.5-1.4-3.6-2c-3.8-0.7-5.6-2-5.6-4.9
				s2.5-4.7,6.3-4.7c3.1,0,5.3,1.2,6.7,2.8l-2.6,2.2c-0.9-1-2.1-1.7-4.1-1.7c-1.5,0-2.3,0.5-2.3,1.4c0,0.9,0.6,1.3,3.5,1.8
				c4,0.7,5.8,2,5.8,4.9c0,3.3-2.8,5-6.9,5C257.5,286,255,284.8,253.4,283z"/>
		</g>
		<g class="st0">
			<path class="st1" d="M19.4,377h-5.5l-0.6,2.3h-4l5-15.6h4.9l5,15.6H20L19.4,377z M16.6,366.6l-1.9,7.3h3.8L16.6,366.6z"/>
		</g>
		<g class="st0">
			<path class="st1" d="M38,373.4c0,3.6-2.1,6.3-6.7,6.3c-4.6,0-6.6-2.8-6.6-6.3v-9.7h3.9v9.7c0,2.2,0.8,3.1,2.7,3.1
				c1.9,0,2.7-1.1,2.7-3.1v-9.7H38V373.4z"/>
		</g>
		<g class="st0">
			<path class="st1" d="M51.7,366.9h-4.3v12.3h-3.9v-12.3h-4.3v-3.2h12.6V366.9z"/>
		</g>
		<g class="st0">
			<path class="st1" d="M68,371.5c0,5.6-3.8,8.2-8,8.2c-3.8,0-8-2.3-8-8.2c0-5.7,3.8-8.2,8-8.2C63.8,363.3,68,365.4,68,371.5z
				 M56.1,371.4c0,3.2,1.4,5,3.9,5c2.2,0,3.9-1.7,3.9-5c0-3.1-1.4-5-3.9-5C57.7,366.5,56.1,368.3,56.1,371.4z"/>
			<path class="st1" d="M82.4,368.7c0,2.1-1.1,3.5-3.1,4.3l4,6.3h-4.7l-3.2-5.7h-1.7v5.7h-3.9v-15.6H76
				C80.5,363.7,82.4,365.8,82.4,368.7z M73.7,366.8v3.8H76c1.4,0,2.3-0.5,2.3-2c0-1.3-0.8-1.9-2.2-1.9H73.7z"/>
			<path class="st1" d="M88.2,379.3h-3.9v-15.6h3.9V379.3z"/>
			<path class="st1" d="M102.2,366.7l-7.5,9.4h7.7v3.1H89.9v-3l7.5-9.5h-7.1v-3.1h11.8V366.7z"/>
			<path class="st1" d="M112.8,377h-5.5l-0.6,2.3h-4l5-15.6h4.9l5,15.6h-4.1L112.8,377z M110,366.6l-1.9,7.3h3.8L110,366.6z"/>
			<path class="st1" d="M132.3,371.3c0,6.1-4,8-7.8,8h-5.9v-15.6h5.3C128.2,363.7,132.3,365.7,132.3,371.3z M122.4,366.8v9.3h2
				c1.8,0,3.8-0.9,3.8-4.9c0-2.8-1.2-4.4-4.3-4.4H122.4z"/>
			<path class="st1" d="M149.4,371.5c0,5.6-3.8,8.2-8,8.2c-3.8,0-8-2.3-8-8.2c0-5.7,3.8-8.2,8-8.2
				C145.3,363.3,149.4,365.4,149.4,371.5z M137.5,371.4c0,3.2,1.4,5,3.9,5c2.2,0,3.9-1.7,3.9-5c0-3.1-1.4-5-3.9-5
				C139.1,366.5,137.5,368.3,137.5,371.4z"/>
		</g>
		<path class="st1" d="M293.6,340.7c0,0.1,0,0.2,0,0.4v8.6c-0.1,0-0.1,0-0.2,0c-0.1,0-0.2,0-0.4,0H185.2c-0.1,0.2-0.1,44.9,0,45.3
			h0.3h8.7l0,0l0,0l0,0v-36l0,0l0,0c0.2-0.1,8.7-0.1,9,0V395c0.2,0.1,8.7,0.1,9.1,0c0-0.6,0-1.2,0-1.9v-34.3c0.2-0.1,8.6-0.1,8.9,0
			c0.1,0.2,0.1,44.8,0,45.1h-44.8H176v-63.3H293.6z"/>
		<path class="st1" d="M176,413.1h108.6c0.1-0.3,0.1-8.8,0-9.1h-18c-0.1-0.2-0.1-44.8,0-45.1l0,0l0,0h0.2h26.7h0.1v63.2h-0.2H176
			V413.1z M284.6,395L284.6,395c0,0,0-0.1,0-0.2V368c0-0.1,0-0.1,0-0.2l0,0l0,0h-9c0,0.2,0,0.3,0,0.5v26.2c0,0.1,0,0.2,0,0.3
			c0,0.1,0,0.1,0,0.2C275.9,395,284.4,395,284.6,395z"/>
		<path class="st1" d="M257.4,385.9h-18.1c0,0.1,0,0.2,0,0.3v8.6c0,0.1,0.1,0.2,0.1,0.2c0,0,0,0,0,0h17.8c0.1,0.2,0.1,8.6,0,9h-27
			l0,0l0,0c0-0.1,0-0.1,0-0.2v-44.9c0,0,0,0,0-0.1c0.2-0.1,26.8-0.1,27,0L257.4,385.9z M248.4,376.9c0-0.1,0-0.1,0-0.2V368
			c0,0,0,0,0-0.1l0,0l0,0c-0.4-0.1-8.8,0-9,0c-0.1,0.3-0.1,8.8,0,9L248.4,376.9z"/>
	</g>
</g>
</svg>
