<svg xmlns="http://www.w3.org/2000/svg" xmlns:xlink="http://www.w3.org/1999/xlink" viewBox="0 0 64.25 66.74"><defs><style>.cls-1{isolation:isolate;}.cls-2{mix-blend-mode:multiply;opacity:0.8;fill:url(#radial-gradient);}.cls-3{fill:#0092c0;}.cls-4{fill:#fff;}</style><radialGradient id="radial-gradient" cx="32.12" cy="34.61" r="32.12" gradientUnits="userSpaceOnUse"><stop offset="0" stop-color="#000056"/><stop offset="0.39" stop-color="#7373a2" stop-opacity="0.55"/><stop offset="0.78" stop-color="#d9d9e6" stop-opacity="0.15"/><stop offset="1" stop-color="#fff" stop-opacity="0"/></radialGradient></defs><g class="cls-1"><g id="Camada_2" data-name="Camada 2"><g id="Layout_1" data-name="Layout 1"><circle class="cls-2" cx="32.12" cy="34.61" r="32.12"/><path class="cls-3" d="M2.4,32.26V11.43A11.47,11.47,0,0,1,13.83,0H34.67A11.47,11.47,0,0,1,46.1,11.43V32.26A11.47,11.47,0,0,1,34.67,43.69h-7L24,42.8l-3.16.89h-7A11.47,11.47,0,0,1,2.4,32.26Z"/><path class="cls-4" d="M32.75,28.88l1-6.32H27.66V18.47c0-1.73.85-3.42,3.56-3.42H34V9.68a33.34,33.34,0,0,0-4.89-.43c-5,0-8.25,3-8.25,8.5v4.81H15.29v6.32h5.55V43.69h6.82V28.88Z"/></g></g></g></svg>