<svg xmlns="http://www.w3.org/2000/svg" viewBox="0 0 44.65 44.64"><defs><style>.cls-1{fill:#fff;}</style></defs><g id="Camada_2" data-name="Camada 2"><g id="Layout_1" data-name="Layout 1"><path class="cls-1" d="M1.9,6.19A3.84,3.84,0,0,1,3.66,3.92L7.43,1.65A1.15,1.15,0,0,1,9,2l3.27,4.91L15,11a1.17,1.17,0,0,1-.26,1.54L11.35,15.2a2.61,2.61,0,0,0-.68,3.34l.27.49c1,1.74,2.13,3.92,6.45,8.23s6.48,5.5,8.23,6.45l.49.27a2.61,2.61,0,0,0,3.34-.69l2.63-3.38a1.14,1.14,0,0,1,1.53-.26l9,6A1.16,1.16,0,0,1,43,37.22L40.73,41a3.91,3.91,0,0,1-2.27,1.76C33.88,44,25.88,43,13.78,30.87S.64,10.77,1.9,6.19ZM35.36,44.64a12.91,12.91,0,0,0,3.49-.45A5.32,5.32,0,0,0,42,41.76L44.28,38a2.64,2.64,0,0,0-.8-3.55l-9-6a2.62,2.62,0,0,0-3.52.57l-2.65,3.39a1.13,1.13,0,0,1-1.44.3l-.49-.27c-1.66-.92-3.73-2-7.89-6.2s-5.29-6.23-6.2-7.89l-.27-.5a1.14,1.14,0,0,1,.3-1.45l3.38-2.64a2.62,2.62,0,0,0,.57-3.52l-6-9A2.6,2.6,0,0,0,6.67.38L2.89,2.64A5.4,5.4,0,0,0,.45,5.8c-1.35,5-.33,13.51,12.27,26.12,10,10,17.5,12.72,22.64,12.72Z"/><path class="cls-1" d="M25.3,7.44A12.67,12.67,0,0,1,38,20.1a.75.75,0,0,0,.75.74.74.74,0,0,0,.74-.74A14.16,14.16,0,0,0,25.3,6a.74.74,0,1,0,0,1.48Z"/><path class="cls-1" d="M25.3,11.9a8.2,8.2,0,0,1,8.18,8.2.75.75,0,0,0,1.5,0,9.69,9.69,0,0,0-9.68-9.68.74.74,0,0,0,0,1.48Z"/><path class="cls-1" d="M25.3,16.37A3.73,3.73,0,0,1,29,20.1a.75.75,0,0,0,1.49,0,5.22,5.22,0,0,0-5.21-5.22.75.75,0,0,0-.74.75.74.74,0,0,0,.74.74Z"/></g></g></svg>