<svg xmlns="http://www.w3.org/2000/svg" viewBox="0 0 948.08 222.17"><defs><style>.cls-1,.cls-2{fill:#548cbe;}.cls-1{fill-rule:evenodd;}</style></defs><g id="Camada_2" data-name="Camada 2"><g id="Layout_1" data-name="Layout 1"><path class="cls-1" d="M251.12,87.37A2,2,0,0,1,248.91,86L246,71.89l-1.93,3.32a2.36,2.36,0,0,1-1.94,1.25H231.5a2.28,2.28,0,0,1-2.21-2.22A2.19,2.19,0,0,1,231.5,72h9.4L245,64.84a2.5,2.5,0,0,1,2.35-1,2.42,2.42,0,0,1,1.8,1.66L251,74.1l4-22.38a2.21,2.21,0,0,1,2.07-1.8h0A2.07,2.07,0,0,1,259,51a59.38,59.38,0,0,0-2.76,18v.41l-3.05,16.45a1.84,1.84,0,0,1-2.07,1.52Zm36.48,0A2,2,0,0,0,289.82,86l2.9-14.1,1.93,3.32a2.35,2.35,0,0,0,1.94,1.25h3.73l3.73,9.39a2.3,2.3,0,0,0,2.21,1.38,2.2,2.2,0,0,0,1.94-1.8l3.59-20.59,3.73,21a2,2,0,0,0,2.21,1.52h0A2,2,0,0,0,319.94,86l2.9-14.1,1.94,3.32a2.35,2.35,0,0,0,1.93,1.25h6a2.35,2.35,0,0,0,1.93-1.25l1.93-3.32,2.9,14.1a2,2,0,0,0,2.21,1.38h0c1.12,0,1.94-.41,2.08-1.52l3.87-21,1.93,10.92A34.65,34.65,0,0,0,350.2,69a35.56,35.56,0,0,0-4.7-17.41v.14l-4,22.38-1.8-8.56a2.42,2.42,0,0,0-1.79-1.66,2.49,2.49,0,0,0-2.35,1L331.41,72H328l-4.29-7.19a2.15,2.15,0,0,0-2.21-1,2.05,2.05,0,0,0-1.8,1.66l-1.79,8.56-4-22.38a2.24,2.24,0,0,0-2.21-1.8h0a2.36,2.36,0,0,0-2.21,1.8l-4.29,25.15-1.38-3.46A2.12,2.12,0,0,0,301.7,72h-3.87l-4.15-7.19a2.48,2.48,0,0,0-2.34-1,2.42,2.42,0,0,0-1.8,1.66l-1.8,8.56-3.87-21.83A34.64,34.64,0,0,0,279.59,69a33,33,0,0,0,.41,5.25l1.66-9.4,3.87,21a1.85,1.85,0,0,0,2.07,1.52Zm91.21,0A2,2,0,0,0,381,86l2.9-14.1,1.94,3.32a2.32,2.32,0,0,0,1.79,1.25h10.64a2.27,2.27,0,0,0,2.21-2.22A2.18,2.18,0,0,0,398.29,72H388.9l-4.15-7.19a2.26,2.26,0,0,0-2.21-1,2,2,0,0,0-1.79,1.66L379,74.1l-4-22.38a2.37,2.37,0,0,0-2.21-1.8h0a2.19,2.19,0,0,0-1.94,1.25,58.26,58.26,0,0,1,2.77,17.68l3,17a2,2,0,0,0,2.21,1.52ZM368.58,69a53.63,53.63,0,1,0-25.42,45.74l30.54,30.54a13.39,13.39,0,0,0,18.93-18.93l-31-30.95A53.36,53.36,0,0,0,368.58,69Zm-53.75,40.35A40.28,40.28,0,1,1,355.18,69a40.37,40.37,0,0,1-40.35,40.35Z"/><path class="cls-1" d="M36.42,61.36A33.5,33.5,0,0,0,39,67.44l-3.18,3.87a3.34,3.34,0,0,0,.28,4.28l5.39,5.25a2.88,2.88,0,0,0,4.14.28l3.87-3a28.4,28.4,0,0,0,6.36,2.63l.55,5a3.38,3.38,0,0,0,3.18,2.9h7.6a3.17,3.17,0,0,0,3.18-2.9L71,81a29.08,29.08,0,0,0,6.77-2.76l3.74,2.9A3.18,3.18,0,0,0,85.75,81L91,75.59a3.06,3.06,0,0,0,.28-4.28l-2.91-3.73a23.43,23.43,0,0,0,2.77-6.64l4.56-.55a3,3,0,0,0,2.76-3.18V49.75a3.05,3.05,0,0,0-2.76-3.18L91.28,46a28.08,28.08,0,0,0-2.77-6.63l2.77-3.32A3.2,3.2,0,0,0,91,31.78L85.75,26.4a3.17,3.17,0,0,0-4.28-.14l-3.32,2.62A27.24,27.24,0,0,0,71.24,26l-.55-4.42a3.16,3.16,0,0,0-3.18-2.76H60.05a3.14,3.14,0,0,0-3.18,2.76L56.32,26a35.49,35.49,0,0,0-7.19,2.9l-3.46-2.62a3,3,0,0,0-4.14.14l-5.39,5.38a3.35,3.35,0,0,0-.28,4.29l2.91,3.6a38.13,38.13,0,0,0-2.63,6.63l-4.56.55A3.27,3.27,0,0,0,28.67,50v7.6a3.39,3.39,0,0,0,2.91,3.18ZM63.64,46.85a6.84,6.84,0,1,1-6.91,6.77,6.78,6.78,0,0,1,6.91-6.77Zm52.65,5.81A52.65,52.65,0,1,0,22.18,85.13a233.92,233.92,0,0,1,17.14,25v27.78H87.68V110.69A258,258,0,0,1,105,85.13a52.41,52.41,0,0,0,11.33-32.47ZM63.64,13.41a40.84,40.84,0,1,1-40.91,40.9,40.86,40.86,0,0,1,40.91-40.9Zm0,23.91a16.37,16.37,0,1,1-16.45,16.3,16.34,16.34,0,0,1,16.45-16.3ZM52.44,155.05a11.17,11.17,0,0,0,11.06,9.53,11,11,0,0,0,10.92-9.53,14,14,0,0,0,13.26-13.81H39.32a13.9,13.9,0,0,0,13.12,13.81ZM63.64,42.71A11,11,0,1,1,52.58,53.62,11,11,0,0,1,63.64,42.71Zm0-6.91a17.9,17.9,0,1,1-18,17.82,18,18,0,0,1,18-17.82Z"/><path class="cls-1" d="M880.51,13A45,45,0,0,0,841.4,36.07a27.59,27.59,0,0,0-5.94-.55,33.65,33.65,0,0,0-31.78,22.66c-.69,0-1.38-.14-2.08-.14a33.79,33.79,0,0,0,0,67.57h17.14c-.28-.55-.42-1.1-.69-1.65l-3.46-.42a6.74,6.74,0,0,1-5.94-6.77v-8.43a6.75,6.75,0,0,1,5.94-6.77l3-.27c.55-1.53,1.1-2.91,1.65-4.15l-1.93-2.49a6.94,6.94,0,0,1,.55-9.12l5.94-5.94A7,7,0,0,1,833,79l2.21,1.8a28.18,28.18,0,0,1,4.7-2.07l.28-2.76a6.86,6.86,0,0,1,6.77-6h8.43a6.86,6.86,0,0,1,6.77,6l.28,2.76c1.52.55,3,1.24,4.56,1.94L869.05,79a6.75,6.75,0,0,1,9,.56l6.08,5.94a6.77,6.77,0,0,1,.42,9l-1.66,2.35c.55,1.25,1.1,2.63,1.66,4l2.76.42a6.61,6.61,0,0,1,6.08,6.63v8.56a6.87,6.87,0,0,1-6.08,6.78l-2.9.27-.83,2.07h30.82a33.75,33.75,0,0,0,11-65.63c0-.7.14-1.25.14-1.94a45.06,45.06,0,0,0-45-45Zm-60,108.06a41.38,41.38,0,0,0,2.76,6.78l-3.46,4.42a3.58,3.58,0,0,0,.28,4.69L826.2,143a3.43,3.43,0,0,0,4.7.14l4.42-3.32a31.6,31.6,0,0,0,7,2.9l.69,5.67a3.47,3.47,0,0,0,3.45,3.18h8.57a3.47,3.47,0,0,0,3.46-3.18l.69-5.39a30.9,30.9,0,0,0,7.6-3.18l4.15,3.46a3.76,3.76,0,0,0,4.83-.28l6-6.09a3.59,3.59,0,0,0,.27-4.69l-3.32-4.15a29.22,29.22,0,0,0,3.18-7.46L887,120a3.47,3.47,0,0,0,3.18-3.46v-8.56a3.47,3.47,0,0,0-3.18-3.46l-5-.55a35.5,35.5,0,0,0-3-7.46l3-3.87a3.6,3.6,0,0,0-.27-4.7l-6-6.08a3.74,3.74,0,0,0-4.83-.27l-3.73,3a35.75,35.75,0,0,0-7.74-3.31L859,76.42a3.69,3.69,0,0,0-3.59-3.18h-8.43a3.69,3.69,0,0,0-3.59,3.18l-.55,4.84a34.27,34.27,0,0,0-8,3.45l-3.87-3.17a3.58,3.58,0,0,0-4.7.27l-6.08,6.08a3.59,3.59,0,0,0-.28,4.7l3.32,4.15a24.51,24.51,0,0,0-2.9,7.45l-5.25.56a3.7,3.7,0,0,0-3.18,3.59v8.43a3.69,3.69,0,0,0,3.18,3.59Zm30.39-28.74a20.11,20.11,0,1,1-20,20,20.09,20.09,0,0,1,20-20Zm0,1.66a18.45,18.45,0,1,1-18.37,18.38A18.38,18.38,0,0,1,850.93,94Zm0,6.08a12.37,12.37,0,1,1-12.29,12.3,12.35,12.35,0,0,1,12.29-12.3Z"/><circle class="cls-2" cx="584.2" cy="124.05" r="13.88"/><path class="cls-2" d="M523.18,63,513.5,49.7a120,120,0,0,1,141.39,0L645.21,63A103.56,103.56,0,0,0,523.18,63Z"/><path class="cls-2" d="M632,87.52a81.2,81.2,0,0,0-95.68,0L526.68,74.2a97.6,97.6,0,0,1,115,0Z"/><path class="cls-2" d="M618.86,112.48a58.84,58.84,0,0,0-69.33,0l-9.68-13.32a75.24,75.24,0,0,1,88.69,0Z"/><path class="cls-2" d="M0,215.4V195.26H4.61V215.4Z"/><path class="cls-2" d="M20.91,215.4,12.56,203v12.4H8.24V195.26h4.07l8.36,12.43V195.26H25V215.4Z"/><path class="cls-2" d="M47,205.3c0,5.87-4.2,10.33-9.82,10.33s-9.79-4.43-9.79-10.33,4.19-10.21,9.79-10.21S47,199.46,47,205.3Zm-14.9,0c0,3.4,2.36,6,5.13,6s5-2.62,5-6-2.23-6-5-6S32.12,201.94,32.12,205.33Z"/><path class="cls-2" d="M54.4,215.4l-7-20.14h4.92l4.64,14.82,4.64-14.82h4.74L59.17,215.4Z"/><path class="cls-2" d="M70.8,211.69l-1.32,3.71H64.73l7.83-20.14H77.3l7.64,20.14H80l-1.3-3.71Zm4-11.34-2.65,7.46h5.24Z"/><path class="cls-2" d="M102,212a10.91,10.91,0,0,1-6.22,3.57l-.62,1.35a2.34,2.34,0,0,1,1.76,2.33,3,3,0,0,1-3.24,3,4.33,4.33,0,0,1-2.46-.9l.83-2a1.87,1.87,0,0,0,1.27.58,1.05,1.05,0,1,0-.1-2.1,5.44,5.44,0,0,0-.93.11l1-2.27c-4.82-.61-8.29-4.84-8.29-10.28,0-5.81,4.17-10.18,9.69-10.18a10.07,10.07,0,0,1,7.31,3.39L99.27,202a6,6,0,0,0-4.56-2.62c-2.88,0-5.06,2.54-5.06,5.85s2.18,5.92,5.06,5.92a6.52,6.52,0,0,0,4.56-2.36Z"/><path class="cls-2" d="M108,211.69l-1.33,3.71h-4.74l7.83-20.14h4.74l7.64,20.14h-4.92l-1.3-3.71Zm2.17-18.79h-2.74c0-3,.9-4.49,2.72-4.49,1.52,0,2.25,1.35,3,1.35.54,0,.8-.4.8-1.21h2.72c0,3-.88,4.46-2.69,4.46-1.59,0-2.26-1.35-3-1.35C110.43,191.66,110.17,192.06,110.17,192.9Zm1.82,7.45-2.65,7.46h5.24Z"/><path class="cls-2" d="M141.75,205.3c0,5.87-4.2,10.33-9.82,10.33s-9.79-4.43-9.79-10.33,4.2-10.21,9.79-10.21S141.75,199.46,141.75,205.3Zm-14.9,0c0,3.4,2.36,6,5.13,6s5-2.62,5-6-2.23-6-5-6S126.85,201.94,126.85,205.33Z"/><path class="cls-2" d="M267.86,211.69l-1.32,3.71h-4.75l7.83-20.14h4.74L282,215.4h-4.92l-1.3-3.71Zm4-11.34-2.65,7.46h5.24Z"/><path class="cls-2" d="M299.23,205.16V213a13.24,13.24,0,0,1-7.54,2.62c-5.52,0-9.69-4.43-9.69-10.3a9.88,9.88,0,0,1,10-10.24,11,11,0,0,1,7.41,3l-2.59,3.48a7.08,7.08,0,0,0-4.85-2.19c-3,0-5.26,2.59-5.26,6s2.31,6,5.32,6a7.18,7.18,0,0,0,3.21-1v-5.21Z"/><path class="cls-2" d="M302.44,215.4V195.26h4.61V215.4Z"/><path class="cls-2" d="M323,211.12v4.28H310.67V195.26h4.62v15.86Z"/><path class="cls-2" d="M325.18,215.4V195.26h4.61V215.4Z"/><path class="cls-2" d="M341.22,195.26c5.7,0,9.64,4.09,9.64,10.07s-4,10.07-9.82,10.07h-7.62V195.26ZM338,211.32h3.29c2.83,0,4.85-2.42,4.85-6s-2.13-6-5.06-6H338Z"/><path class="cls-2" d="M356.92,211.69l-1.33,3.71h-4.74l7.83-20.14h4.74l7.64,20.14h-4.92l-1.3-3.71Zm4-11.34-2.64,7.46h5.24Z"/><path class="cls-2" d="M380.54,195.26c5.7,0,9.64,4.09,9.64,10.07s-4,10.07-9.82,10.07h-7.62V195.26Zm-3.19,16.06h3.29c2.83,0,4.85-2.42,4.85-6s-2.13-6-5.05-6h-3.09Z"/><path class="cls-2" d="M397.22,199.29v4h8.66v4h-8.66v4.05h9.87v4H392.61V195.26h14.2v4Z"/><path class="cls-2" d="M540.65,198.48,538,202a6,6,0,0,0-4.56-2.62c-2.88,0-5,2.54-5,5.85s2.17,5.92,5,5.92a6.52,6.52,0,0,0,4.56-2.36l2.69,3.17a10.45,10.45,0,0,1-7.48,3.68c-5.47,0-9.54-4.46-9.54-10.36s4.17-10.18,9.69-10.18A10,10,0,0,1,540.65,198.48Z"/><path class="cls-2" d="M560.88,205.3c0,5.87-4.2,10.33-9.82,10.33s-9.79-4.43-9.79-10.33,4.19-10.21,9.79-10.21S560.88,199.46,560.88,205.3Zm-14.9,0c0,3.4,2.36,6,5.13,6s5-2.62,5-6-2.23-6-5-6S546,201.94,546,205.33Z"/><path class="cls-2" d="M576,215.4,567.64,203v12.4h-4.33V195.26h4.07l8.37,12.43V195.26h4.3V215.4Z"/><path class="cls-2" d="M588.28,199.29v4h8.66v4h-8.66v4.05h9.87v4H583.67V195.26h14.2v4Z"/><path class="cls-2" d="M618.15,215.4h-5.52L608.72,209l-3.91,6.41h-5.36l6.47-10.3-6.06-9.84h5.36l3.5,5.87,3.5-5.87h5.41l-6,9.61Z"/><path class="cls-2" d="M624.26,211.69l-1.32,3.71H618.2L626,195.26h4.74l7.64,20.14h-4.92l-1.3-3.71Zm2.18-18.79h-2.75c0-3,.91-4.49,2.72-4.49,1.53,0,2.26,1.35,3,1.35.55,0,.81-.4.81-1.21h2.72c0,3-.88,4.46-2.7,4.46-1.58,0-2.25-1.35-3-1.35C626.7,191.66,626.44,192.06,626.44,192.9Zm1.81,7.45-2.64,7.46h5.23Z"/><path class="cls-2" d="M658,205.3c0,5.87-4.2,10.33-9.82,10.33s-9.79-4.43-9.79-10.33,4.19-10.21,9.79-10.21S658,199.46,658,205.3Zm-14.9,0c0,3.4,2.36,6,5.13,6s5-2.62,5-6-2.23-6-5-6S643.12,201.94,643.12,205.33Z"/><path class="cls-2" d="M803.53,169.43l-1.74,4a12.51,12.51,0,0,0-5.8-2.1c-1.19,0-2,.49-2,1.47,0,3.48,9.58,1.49,9.58,8.78,0,4-3.21,6.15-7.25,6.15a12.69,12.69,0,0,1-8.29-3.22l1.78-3.94a10.77,10.77,0,0,0,6.56,3c1.45,0,2.36-.61,2.36-1.76,0-3.56-9.59-1.44-9.59-8.57,0-3.71,2.88-6.07,7.23-6.07A12.64,12.64,0,0,1,803.53,169.43Z"/><path class="cls-2" d="M822.42,179.1c0,5.32-3.19,8.69-8.27,8.69s-8.37-3.37-8.37-8.69V167.42h4.61V179.1c0,2.73,1.58,4.4,3.79,4.4s3.65-1.67,3.65-4.4V167.42h4.59Z"/><path class="cls-2" d="M833.63,167.42c4.64,0,7.31,2.53,7.31,7,0,4.72-2.67,7.45-7.31,7.45h-3.29v5.67h-4.61V167.42Zm-3.29,10.44h3.06a2.9,2.9,0,0,0,3.18-3.25,2.85,2.85,0,0,0-3.18-3.17h-3.06Z"/><path class="cls-2" d="M861.76,177.46c0,5.87-4.19,10.33-9.81,10.33s-9.8-4.43-9.8-10.33,4.2-10.22,9.8-10.22S861.76,171.62,861.76,177.46Zm-14.89,0c0,3.39,2.35,6,5.13,6s5-2.62,5-6-2.23-6-5-6S846.87,174.09,846.87,177.49Z"/><path class="cls-2" d="M872.43,181.89h-3.62v5.67H864.2V167.42h8.1c4.8,0,7.54,2.53,7.54,7,0,3.08-1.16,5.29-3.29,6.47l3.81,6.65h-5.23Zm-.13-4a2.9,2.9,0,0,0,3.17-3.25,2.85,2.85,0,0,0-3.17-3.17h-3.49v6.42Z"/><path class="cls-2" d="M891.34,171.53v16h-4.61v-16h-5.41v-4.14h15.49v4.14Z"/><path class="cls-2" d="M903.39,171.44v4H912v4h-8.65v4.06h9.87v4H898.78V167.42H913v4Z"/><path class="cls-2" d="M802.08,200.31v16h-4.61v-16h-5.42v-4.14h15.49v4.14Z"/><path class="cls-2" d="M814.12,200.23v4h8.66v4h-8.66v4.05H824v4H809.51V196.2h14.2v4Zm3.73-5.79h-3.42l2.75-4.83,4,1.58Z"/><path class="cls-2" d="M842.77,199.42l-2.66,3.51a6.06,6.06,0,0,0-4.56-2.62c-2.88,0-5.06,2.54-5.06,5.85s2.18,5.92,5.06,5.92a6.54,6.54,0,0,0,4.56-2.36l2.69,3.17a10.46,10.46,0,0,1-7.49,3.68c-5.46,0-9.53-4.46-9.53-10.36S830,196,835.47,196A10,10,0,0,1,842.77,199.42Z"/><path class="cls-2" d="M857.57,216.34l-8.35-12.4v12.4H844.9V196.2H849l8.37,12.43V196.2h4.3v20.14Z"/><path class="cls-2" d="M865.26,216.34V196.2h4.61v20.14Z"/><path class="cls-2" d="M889.3,199.42l-2.67,3.51a6,6,0,0,0-4.56-2.62c-2.88,0-5.05,2.54-5.05,5.85s2.17,5.92,5.05,5.92a6.52,6.52,0,0,0,4.56-2.36l2.69,3.17a10.45,10.45,0,0,1-7.48,3.68c-5.47,0-9.54-4.46-9.54-10.36S876.47,196,882,196A10,10,0,0,1,889.3,199.42Z"/><path class="cls-2" d="M909.53,206.24c0,5.87-4.2,10.33-9.82,10.33s-9.79-4.43-9.79-10.33S894.11,196,899.71,196,909.53,200.4,909.53,206.24Zm-14.9,0c0,3.4,2.36,6,5.13,6s5-2.62,5-6-2.23-6-5-6S894.63,202.88,894.63,206.27Z"/></g></g></svg>