<?xml version="1.0" encoding="utf-8"?>
<!-- Generator: Adobe Illustrator 26.0.1, SVG Export Plug-In . SVG Version: 6.00 Build 0)  -->
<svg version="1.1" id="Camada_1" xmlns="http://www.w3.org/2000/svg" xmlns:xlink="http://www.w3.org/1999/xlink" x="0px" y="0px"
	 viewBox="0 0 255.6 170.7" style="enable-background:new 0 0 255.6 170.7;" xml:space="preserve">
<style type="text/css">
	.st0{fill:#FFFFFF;}
	.st1{enable-background:new    ;}
</style>
<g id="Camada_2_00000135686900007703862140000012992665994151233980_">
	<g id="Layout_1">
		<path class="st0" d="M91.2,91.6l-11.8,0.1c-1.3,0-2.4-1.1-2.3-2.4c0-0.4,0.1-0.8,0.3-1.2l37.5-61.9c0.7-1.1,2.1-1.5,3.2-0.8
			c0.3,0.2,0.6,0.5,0.8,0.8l4.8,8.2c1,1.7,1,3.8,0,5.5L96,88.8C95,90.5,93.2,91.6,91.2,91.6z"/>
		<path class="st0" d="M166,91.7L113.4,3.6c-0.7-1.1-0.3-2.6,0.8-3.2c0.4-0.2,0.8-0.3,1.3-0.3l8.4,0.2c1.9,0,3.7,1,4.6,2.7
			l49.6,82.9c1.1,1.8,0.5,4.1-1.3,5.2c-0.6,0.3-1.2,0.5-1.9,0.5L166,91.7z"/>
		<path class="st0" d="M153.6,91.7h-48.2c-1.3,0-2.4-1.1-2.4-2.4c0-0.4,0.1-0.8,0.3-1.2l24.4-43.2c0.7-1.1,2.1-1.5,3.2-0.9
			c0.3,0.2,0.6,0.4,0.8,0.7l4.4,6.6c1.2,1.7,1.3,3.9,0.3,5.8L125,77.6h17.6c6.1,0,11,4.9,11,11V91.7z"/>
		<g class="st1">
			<path class="st0" d="M30.5,141.1H14l-1.9,6.8h-12l14.9-46.8h14.8l15,46.8H32.4L30.5,141.1z M22.3,109.9l-5.7,22H28L22.3,109.9z"
				/>
		</g>
		<g class="st1">
			<path class="st0" d="M89.3,113.8l-11.4,2.9c-1.9-4.7-4.7-7.1-9.8-7.1c-6.8,0-11,5.3-11,14.8s3.9,15,11.2,15
				c5.7,0,8.8-2.9,10.8-8.2l11.2,3.3c-3.7,9.6-12.3,14.5-22.3,14.5c-11.8,0-23-7.2-23-24.7c0-17.2,11.2-24.5,23.1-24.5
				C77.1,99.9,85.4,103.6,89.3,113.8z"/>
		</g>
		<g class="st1">
			<path class="st0" d="M129.3,110.8h-13v37.1h-11.8v-37.1h-13v-9.7h37.8V110.8z"/>
		</g>
		<g class="st1">
			<path class="st0" d="M172.9,130.2c0,10.8-6.3,18.9-20.1,18.9c-14,0-19.9-8.3-19.9-18.9v-29.1h11.8v29c0,6.5,2.5,9.4,8.2,9.4
				c5.7,0,8.2-3.2,8.2-9.4v-29h11.8V130.2z"/>
		</g>
		<g class="st1">
			<path class="st0" d="M205.5,141.1h-16.5l-1.9,6.8h-12l14.9-46.8h14.8l15,46.8h-12.4L205.5,141.1z M197.2,109.9l-5.7,22h11.4
				L197.2,109.9z"/>
			<path class="st0" d="M234.5,137.9h19.8v10h-31.6v-46.8h11.8V137.9z"/>
		</g>
	</g>
</g>
</svg>
