<?xml version="1.0" standalone="no"?>
<!DOCTYPE svg PUBLIC "-//W3C//DTD SVG 20010904//EN"
 "http://www.w3.org/TR/2001/REC-SVG-20010904/DTD/svg10.dtd">
<svg version="1.0" xmlns="http://www.w3.org/2000/svg"
 width="1394.000000pt" height="599.000000pt" viewBox="0 0 1394.000000 599.000000"
 preserveAspectRatio="xMidYMid meet">

<g transform="translate(0.000000,599.000000) scale(0.100000,-0.100000)"
fill="#f9f9f9" stroke="none">
<path d="M7066 5958 c-8 -18 -31 -86 -51 -150 l-38 -118 -144 0 c-143 0 -183
-8 -183 -35 0 -7 51 -50 113 -95 61 -45 117 -89 123 -96 9 -12 2 -47 -33 -155
-64 -203 -57 -208 115 -84 64 47 124 84 132 82 9 -2 66 -41 127 -86 166 -122
176 -114 108 88 -25 77 -44 145 -41 150 3 5 60 48 126 95 66 48 120 94 120
101 0 27 -40 35 -184 35 l-145 0 -48 148 c-53 161 -71 184 -97 120z"/>
<path d="M5933 5638 c-6 -7 -23 -51 -38 -98 -15 -47 -32 -90 -37 -97 -6 -8
-48 -13 -116 -15 -141 -4 -144 -15 -28 -100 47 -34 86 -67 86 -73 0 -5 -14
-52 -31 -103 -48 -143 -34 -152 92 -62 46 33 87 60 90 60 3 0 44 -27 90 -60
125 -90 136 -81 89 65 -36 114 -40 104 71 181 51 36 69 54 67 69 -3 18 -12 20
-110 23 -68 2 -110 7 -116 15 -5 7 -22 50 -36 97 -34 106 -50 127 -73 98z"/>
<path d="M8216 5628 c-8 -13 -24 -57 -37 -98 -12 -41 -26 -81 -32 -87 -6 -9
-43 -13 -118 -13 -106 0 -109 -1 -109 -22 0 -17 19 -37 71 -73 107 -76 103
-65 67 -177 -30 -96 -31 -128 -5 -128 7 0 50 27 95 60 45 33 85 60 90 60 5 0
45 -27 90 -60 123 -90 136 -81 91 61 -16 52 -29 99 -29 104 0 6 39 39 86 73
116 85 113 96 -26 100 -57 1 -110 8 -117 14 -7 6 -25 49 -39 97 -35 116 -50
132 -78 89z"/>
<path d="M4965 5298 c-2 -7 -9 -42 -15 -78 -17 -103 -12 -96 -103 -110 -133
-19 -138 -34 -28 -90 44 -22 82 -43 85 -48 3 -5 -1 -47 -9 -93 -13 -72 -13
-85 -1 -98 13 -12 24 -5 84 53 l70 67 81 -41 c115 -57 124 -47 64 75 l-37 75
62 63 c34 34 62 71 62 81 0 20 -15 20 -150 1 l-45 -7 -40 79 c-38 74 -69 102
-80 71z"/>
<path d="M9145 5233 c-45 -88 -35 -84 -167 -68 -62 7 -68 6 -68 -11 0 -10 28
-47 62 -81 l62 -63 -41 -84 c-35 -70 -40 -86 -28 -96 10 -8 32 -2 95 30 l82
41 70 -67 c59 -57 71 -65 83 -53 11 12 11 28 -1 98 -7 46 -11 88 -8 93 3 5 38
25 77 45 114 57 111 70 -21 93 l-87 15 -15 90 c-13 76 -18 90 -35 93 -16 2
-28 -14 -60 -75z"/>
<path d="M9348 4173 c-19 -27 -59 -79 -88 -116 l-53 -68 28 -29 27 -29 57 25
c31 14 91 46 134 71 66 40 77 51 77 74 0 22 -12 36 -64 73 -36 25 -68 46 -73
46 -5 0 -25 -21 -45 -47z"/>
<path d="M8725 4146 c-27 -7 -60 -18 -71 -24 -56 -30 -104 -128 -104 -214 l0
-38 -45 0 -45 0 0 -95 0 -95 45 0 45 0 0 -255 0 -255 115 0 115 0 0 255 0 255
90 0 90 0 0 95 0 95 -91 0 -92 0 6 41 c8 60 25 72 109 78 l73 6 7 70 c4 38 5
71 2 74 -7 8 -99 20 -149 20 -27 -1 -72 -6 -100 -13z"/>
<path d="M7255 3866 c-107 -34 -174 -101 -206 -208 -28 -90 -23 -238 9 -310
29 -66 93 -131 155 -159 45 -21 68 -24 167 -24 110 0 118 2 187 34 108 50 111
56 74 130 -17 34 -32 61 -34 61 -1 0 -27 -9 -57 -21 -30 -11 -86 -23 -125 -26
-58 -4 -75 -1 -102 16 -50 31 -68 74 -68 161 1 134 53 185 180 176 39 -2 89
-11 111 -19 l42 -15 30 71 30 72 -44 23 c-93 48 -260 66 -349 38z"/>
<path d="M7995 3874 c-11 -2 -45 -9 -75 -15 -30 -6 -71 -15 -91 -20 l-36 -9
16 -76 16 -76 45 7 c230 35 273 26 287 -59 l6 -36 -120 0 c-139 0 -206 -16
-258 -61 -42 -37 -59 -85 -57 -168 1 -128 63 -192 192 -199 84 -5 136 9 194
53 l46 36 0 -41 0 -40 111 0 110 0 -3 273 c-3 256 -4 274 -25 312 -47 89 -104
117 -238 121 -55 2 -109 1 -120 -2z m165 -447 c0 -47 -11 -63 -67 -91 -76 -38
-157 -3 -157 69 0 55 20 65 131 65 l93 0 0 -43z"/>
<path d="M9240 3867 c-105 -30 -179 -103 -212 -210 -29 -96 -23 -238 13 -317
52 -113 145 -171 288 -178 123 -7 228 22 323 90 l27 19 -31 63 -31 63 -61 -25
c-73 -30 -208 -42 -256 -22 -28 12 -70 64 -70 89 0 8 64 11 225 11 l225 0 0
88 c0 159 -47 252 -154 306 -50 26 -71 31 -149 33 -54 2 -111 -3 -137 -10z
m189 -162 c25 -13 61 -75 61 -105 0 -6 -52 -10 -130 -10 -112 0 -130 2 -130
16 0 30 33 85 59 99 34 19 105 19 140 0z"/>
<path d="M13557 3630 c-162 -28 -256 -142 -245 -299 12 -165 128 -263 311
-263 108 0 168 22 233 86 55 54 84 121 84 196 0 185 -177 314 -383 280z"/>
<path d="M5920 2290 l0 -1130 280 0 280 0 0 490 0 490 59 59 c36 36 85 71 127
92 61 30 78 34 151 34 87 0 115 -12 155 -66 33 -45 38 -122 38 -615 l0 -484
281 0 280 0 -3 638 c-4 615 -5 640 -25 714 -32 113 -70 187 -127 244 -91 90
-205 128 -381 127 -93 0 -123 -4 -190 -27 -108 -37 -184 -86 -282 -180 l-83
-79 0 412 0 411 -280 0 -280 0 0 -1130z"/>
<path d="M11530 2290 l0 -1130 280 0 280 0 0 1130 0 1130 -280 0 -280 0 0
-1130z"/>
<path d="M12430 2290 l0 -1130 280 0 280 0 0 1130 0 1130 -280 0 -280 0 0
-1130z"/>
<path d="M0 2230 l0 -1070 285 0 285 0 2 298 3 297 142 3 143 3 46 -63 c25
-35 123 -170 216 -300 l170 -238 304 0 304 0 0 24 c0 16 -82 135 -236 342
-202 275 -233 320 -218 329 218 129 318 253 365 451 28 117 23 339 -10 449
-90 300 -315 475 -683 529 -85 13 -204 16 -612 16 l-506 0 0 -1070z m1080 552
c113 -45 176 -127 187 -246 15 -166 -71 -283 -238 -320 -49 -12 -123 -16 -263
-16 l-196 0 0 306 0 306 228 -4 c205 -3 232 -6 282 -26z"/>
<path d="M2724 2879 c-44 -4 -132 -17 -195 -28 -113 -21 -386 -85 -393 -92 -4
-4 68 -338 78 -365 3 -9 30 -7 94 7 154 31 323 51 442 53 105 1 120 -1 165
-24 61 -31 94 -89 102 -180 l6 -60 -184 0 c-323 0 -490 -25 -626 -92 -167 -82
-243 -224 -243 -453 1 -364 178 -525 565 -512 111 3 140 8 200 31 82 32 149
73 225 139 l55 49 3 -96 3 -96 274 0 275 0 0 523 c0 525 -7 683 -35 792 -52
202 -179 329 -380 380 -123 31 -275 40 -431 24z m296 -1098 l0 -109 -46 -41
c-26 -22 -72 -53 -103 -68 -50 -25 -67 -28 -156 -28 -78 0 -108 4 -138 19 -56
27 -90 84 -95 157 -5 70 9 112 49 140 43 30 95 37 302 38 l187 1 0 -109z"/>
<path d="M4905 2879 c-131 -20 -268 -79 -380 -164 l-60 -45 -3 90 -3 90 -279
0 -280 0 0 -1115 0 -1115 280 0 280 0 2 360 3 359 65 -55 c134 -115 211 -144
395 -151 152 -6 217 6 335 64 240 117 380 423 380 831 0 479 -150 761 -445
835 -79 20 -215 28 -290 16z m35 -490 c56 -31 105 -95 127 -167 28 -90 25
-324 -4 -417 -49 -150 -135 -216 -280 -216 -116 0 -179 26 -260 108 l-63 64 0
235 0 235 46 49 c53 57 126 106 187 126 67 22 193 13 247 -17z"/>
<path d="M8535 2879 c-49 -5 -137 -18 -195 -29 -114 -21 -378 -85 -385 -92 -3
-3 14 -88 36 -189 l42 -185 91 17 c266 51 488 66 579 40 70 -20 111 -71 126
-153 19 -108 36 -98 -171 -98 -399 0 -594 -42 -727 -157 -100 -85 -146 -207
-145 -383 2 -298 112 -452 360 -505 90 -19 261 -19 343 0 87 21 203 84 278
150 33 30 64 55 67 55 3 0 6 -43 6 -95 l0 -95 270 0 271 0 -3 623 c-4 690 -2
664 -73 815 -60 127 -176 218 -330 257 -64 16 -244 36 -310 34 -22 -1 -80 -6
-130 -10z m305 -1098 l0 -109 -47 -41 c-27 -23 -73 -54 -103 -69 -49 -24 -66
-27 -162 -27 -102 0 -108 1 -149 30 -57 40 -84 94 -83 167 1 87 38 130 125
147 24 5 128 9 232 10 l187 1 0 -109z"/>
<path d="M10341 2879 c-466 -49 -724 -362 -723 -879 0 -159 12 -242 53 -365
110 -328 389 -505 799 -505 206 0 375 38 545 123 89 44 235 137 235 149 0 5
-34 76 -76 159 -47 95 -79 149 -87 145 -7 -2 -54 -23 -105 -45 -168 -74 -348
-109 -505 -98 -112 7 -171 30 -228 87 -43 43 -89 134 -89 175 0 13 73 15 544
15 l545 0 6 55 c13 104 -1 363 -24 450 -55 207 -184 373 -352 453 -98 48 -170
67 -294 82 -101 11 -125 11 -244 -1z m285 -414 c29 -14 67 -43 84 -63 32 -39
70 -144 70 -193 l0 -29 -315 0 c-173 0 -315 3 -315 8 0 4 7 31 14 60 48 178
154 257 334 247 54 -3 89 -11 128 -30z"/>
<path d="M13340 2005 l0 -845 280 0 280 0 0 845 0 845 -280 0 -280 0 0 -845z"/>
<path d="M5177 610 c-88 -23 -158 -74 -192 -140 -30 -60 -32 -99 -4 -134 25
-31 34 -32 79 -5 l34 21 -27 20 c-95 69 62 238 198 212 52 -10 109 -55 136
-110 33 -68 33 -212 0 -297 -28 -70 -72 -123 -110 -132 -25 -5 -141 28 -141
41 0 3 17 19 37 37 47 42 68 91 87 204 9 61 22 103 36 124 32 44 14 58 -41 34
-73 -33 -107 -99 -129 -245 -6 -41 -19 -88 -28 -104 -16 -28 -20 -30 -78 -27
-73 3 -117 -24 -112 -67 4 -39 46 -51 96 -28 37 17 42 17 97 1 121 -36 244 3
339 106 146 158 120 395 -52 471 -50 23 -169 32 -225 18z"/>
<path d="M6665 615 c-5 -2 -26 -6 -46 -9 l-36 -6 -28 -126 c-24 -104 -31 -124
-44 -118 -9 4 -28 9 -43 11 -118 21 -264 -182 -215 -299 23 -54 58 -74 106
-60 35 11 111 75 111 94 0 4 5 8 10 8 6 0 10 -13 10 -29 0 -17 10 -42 23 -57
31 -35 58 -29 131 31 l55 44 20 -35 c27 -45 80 -68 137 -59 62 9 164 85 164
122 l0 27 -32 -31 c-66 -62 -113 -69 -159 -24 -36 37 -37 58 -1 65 55 13 133
66 148 101 45 108 -96 145 -195 52 -34 -32 -81 -118 -81 -148 0 -17 -73 -89
-90 -89 -38 0 -27 92 40 361 48 191 48 185 15 174z m-163 -300 c26 -57 -42
-217 -98 -231 -58 -15 -69 63 -24 164 40 89 97 121 122 67z m399 1 c15 -31
-10 -85 -50 -109 -49 -29 -60 -23 -50 26 4 23 8 45 9 48 1 14 50 59 65 59 8 0
20 -11 26 -24z"/>
<path d="M7462 605 c-39 -17 -148 -119 -168 -157 -19 -36 3 -51 25 -17 27 41
85 102 88 92 4 -12 -76 -289 -116 -405 -43 -120 -43 -122 21 -115 28 4 57 12
64 19 23 24 171 569 159 588 -8 14 -34 12 -73 -5z"/>
<path d="M7770 605 c-62 -20 -113 -65 -144 -127 -29 -58 -33 -103 -12 -152 30
-71 98 -95 162 -55 42 26 44 43 5 34 -66 -14 -80 94 -28 209 37 81 87 97 124
40 30 -46 -6 -233 -69 -362 -31 -62 -95 -139 -133 -160 -16 -8 -17 -13 -8 -23
21 -21 130 41 197 110 78 83 118 170 124 273 10 169 -80 257 -218 213z"/>
<path d="M8345 607 c-94 -31 -193 -129 -247 -243 -29 -61 -33 -79 -33 -154 0
-108 21 -154 86 -188 72 -38 165 -14 236 60 83 86 85 231 3 273 -41 21 -70 19
-113 -10 -44 -31 -46 -36 -9 -33 58 4 79 -37 61 -121 -21 -105 -68 -169 -113
-157 -54 13 -62 94 -26 236 32 127 74 206 146 277 63 62 65 79 9 60z"/>
<path d="M8713 609 c-80 -19 -153 -110 -132 -167 10 -27 15 -27 56 -3 28 18
31 23 26 59 -5 34 -2 42 22 60 60 48 135 10 135 -68 0 -46 -19 -99 -43 -118
-9 -8 -38 -19 -64 -26 -56 -14 -74 -46 -26 -46 83 0 116 -102 66 -208 -16 -34
-57 -62 -91 -62 -11 0 -31 9 -46 21 -27 22 -35 64 -17 98 17 30 -1 43 -40 30
-49 -17 -59 -28 -59 -64 0 -66 69 -115 161 -115 59 0 138 29 178 66 81 72 75
188 -13 242 l-41 26 50 25 c179 92 79 297 -122 250z"/>
<path d="M5705 354 c-72 -37 -124 -115 -131 -196 -7 -69 17 -116 69 -142 96
-46 199 17 348 213 l25 34 32 -56 c46 -82 43 -126 -11 -154 -33 -17 -39 -13
-73 43 -11 18 -13 18 -38 -5 -32 -30 -33 -55 -4 -75 78 -55 238 60 238 171 0
15 -12 46 -26 71 -20 34 -25 53 -21 79 6 35 6 35 -25 29 -17 -3 -36 -6 -43 -6
-7 0 -30 -30 -51 -67 -44 -75 -143 -187 -185 -209 -43 -22 -77 -17 -110 15
-30 30 -38 61 -16 61 21 0 131 56 149 77 10 11 21 33 24 50 13 67 -76 106
-151 67z m63 -26 c30 -30 -1 -99 -58 -128 l-40 -20 0 29 c0 39 16 81 42 109
24 25 38 28 56 10z"/>
</g>
</svg>
