<?xml version="1.0" encoding="UTF-8" standalone="no"?>
<!-- Generator: Adobe Illustrator 26.0.1, SVG Export Plug-In . SVG Version: 6.00 Build 0)  -->

<svg
   xmlns:dc="http://purl.org/dc/elements/1.1/"
   xmlns:cc="http://creativecommons.org/ns#"
   xmlns:rdf="http://www.w3.org/1999/02/22-rdf-syntax-ns#"
   xmlns:svg="http://www.w3.org/2000/svg"
   xmlns="http://www.w3.org/2000/svg"
   xmlns:sodipodi="http://sodipodi.sourceforge.net/DTD/sodipodi-0.dtd"
   xmlns:inkscape="http://www.inkscape.org/namespaces/inkscape"
   version="1.1"
   id="Camada_1"
   x="0px"
   y="0px"
   viewBox="0 0 255.6 170.7"
   style="enable-background:new 0 0 255.6 170.7;"
   xml:space="preserve"
   sodipodi:docname="logo_preta.svg"
   inkscape:version="0.92.4 (5da689c313, 2019-01-14)"><metadata
   id="metadata39"><rdf:RDF><cc:Work
       rdf:about=""><dc:format>image/svg+xml</dc:format><dc:type
         rdf:resource="http://purl.org/dc/dcmitype/StillImage" /><dc:title /></cc:Work></rdf:RDF></metadata><defs
   id="defs37" /><sodipodi:namedview
   pagecolor="#ffffff"
   bordercolor="#666666"
   borderopacity="1"
   objecttolerance="10"
   gridtolerance="10"
   guidetolerance="10"
   inkscape:pageopacity="0"
   inkscape:pageshadow="2"
   inkscape:window-width="1366"
   inkscape:window-height="705"
   id="namedview35"
   showgrid="false"
   inkscape:zoom="1.9552103"
   inkscape:cx="29.380809"
   inkscape:cy="73.011779"
   inkscape:window-x="1592"
   inkscape:window-y="265"
   inkscape:window-maximized="1"
   inkscape:current-layer="Camada_1" />
<style
   type="text/css"
   id="style2">
	.st0{fill:#FFFFFF;}
	.st1{enable-background:new    ;}
</style>
<g
   id="Camada_2_00000135686900007703862140000012992665994151233980_"
   style="fill:#4d4d4d"
   transform="matrix(2.075431,0,0,1.8607015,-138.60965,-1.108978)">
	<g
   id="Layout_1"
   style="fill:#4d4d4d">
		<path
   class="st0"
   d="m 91.2,91.6 -11.8,0.1 c -1.3,0 -2.4,-1.1 -2.3,-2.4 0,-0.4 0.1,-0.8 0.3,-1.2 l 37.5,-61.9 c 0.7,-1.1 2.1,-1.5 3.2,-0.8 0.3,0.2 0.6,0.5 0.8,0.8 l 4.8,8.2 c 1,1.7 1,3.8 0,5.5 L 96,88.8 c -1,1.7 -2.8,2.8 -4.8,2.8 z"
   id="path4"
   style="fill:#4d4d4d"
   inkscape:connector-curvature="0" />
		<path
   class="st0"
   d="M 166,91.7 113.4,3.6 c -0.7,-1.1 -0.3,-2.6 0.8,-3.2 0.4,-0.2 0.8,-0.3 1.3,-0.3 l 8.4,0.2 c 1.9,0 3.7,1 4.6,2.7 l 49.6,82.9 c 1.1,1.8 0.5,4.1 -1.3,5.2 -0.6,0.3 -1.2,0.5 -1.9,0.5 z"
   id="path6"
   style="fill:#4d4d4d"
   inkscape:connector-curvature="0" />
		<path
   class="st0"
   d="m 153.6,91.7 h -48.2 c -1.3,0 -2.4,-1.1 -2.4,-2.4 0,-0.4 0.1,-0.8 0.3,-1.2 l 24.4,-43.2 c 0.7,-1.1 2.1,-1.5 3.2,-0.9 0.3,0.2 0.6,0.4 0.8,0.7 l 4.4,6.6 c 1.2,1.7 1.3,3.9 0.3,5.8 L 125,77.6 h 17.6 c 6.1,0 11,4.9 11,11 z"
   id="path8"
   style="fill:#4d4d4d"
   inkscape:connector-curvature="0" />
		<g
   class="st1"
   id="g12"
   style="fill:#4d4d4d;enable-background:new">
			
		</g>
		<g
   class="st1"
   id="g16"
   style="fill:#4d4d4d;enable-background:new">
			
		</g>
		<g
   class="st1"
   id="g20"
   style="fill:#4d4d4d;enable-background:new">
			
		</g>
		<g
   class="st1"
   id="g24"
   style="fill:#4d4d4d;enable-background:new">
			
		</g>
		<g
   class="st1"
   id="g30"
   style="fill:#4d4d4d;enable-background:new">
			
			
		</g>
	</g>
</g>
</svg>