<?xml version="1.0" encoding="UTF-8" standalone="no"?>
<!-- Generator: Adobe Illustrator 26.0.1, SVG Export Plug-In . SVG Version: 6.00 Build 0)  -->

<svg
   xmlns:dc="http://purl.org/dc/elements/1.1/"
   xmlns:cc="http://creativecommons.org/ns#"
   xmlns:rdf="http://www.w3.org/1999/02/22-rdf-syntax-ns#"
   xmlns:svg="http://www.w3.org/2000/svg"
   xmlns="http://www.w3.org/2000/svg"
   xmlns:sodipodi="http://sodipodi.sourceforge.net/DTD/sodipodi-0.dtd"
   xmlns:inkscape="http://www.inkscape.org/namespaces/inkscape"
   version="1.1"
   id="Camada_1"
   x="0px"
   y="0px"
   viewBox="0 0 292.5 195.3"
   style="enable-background:new 0 0 292.5 195.3;"
   xml:space="preserve"
   sodipodi:docname="logo_colorida.svg"
   inkscape:version="0.92.4 (5da689c313, 2019-01-14)"><metadata
   id="metadata61"><rdf:RDF><cc:Work
       rdf:about=""><dc:format>image/svg+xml</dc:format><dc:type
         rdf:resource="http://purl.org/dc/dcmitype/StillImage" /><dc:title></dc:title></cc:Work></rdf:RDF></metadata><defs
   id="defs59" /><sodipodi:namedview
   pagecolor="#ffffff"
   bordercolor="#666666"
   borderopacity="1"
   objecttolerance="10"
   gridtolerance="10"
   guidetolerance="10"
   inkscape:pageopacity="0"
   inkscape:pageshadow="2"
   inkscape:window-width="1600"
   inkscape:window-height="837"
   id="namedview57"
   showgrid="false"
   inkscape:zoom="1.7089319"
   inkscape:cx="109.0372"
   inkscape:cy="102.15543"
   inkscape:window-x="-8"
   inkscape:window-y="-8"
   inkscape:window-maximized="1"
   inkscape:current-layer="Camada_1" />
<style
   type="text/css"
   id="style2">
	.st0{fill:#86C1E4;}
	.st1{fill:#224D88;}
	.st2{fill:#548CBE;}
	.st3{enable-background:new    ;}
	.st4{fill:none;stroke:#224D88;stroke-width:0.14;stroke-miterlimit:22.93;}
</style>
<g
   id="Camada_2_00000028302421021658238660000003315826308710033840_"
   transform="matrix(1.8677756,0,0,1.8677756,-125.20288,-0.48906949)">
	<g
   id="Layout_1">
		<path
   class="st0"
   d="m 104.4,104.8 -13.6,0.1 c -1.5,0 -2.7,-1.2 -2.7,-2.7 0,-0.5 0.1,-1 0.4,-1.4 L 131.4,30 c 0.8,-1.3 2.4,-1.7 3.7,-0.9 0.4,0.2 0.7,0.5 0.9,0.9 l 5.5,9.4 c 1.1,2 1.1,4.4 0,6.3 l -31.8,55.9 c -1,1.9 -3.1,3.1 -5.3,3.2 z"
   id="path4"
   inkscape:connector-curvature="0"
   style="fill:#86c1e4" />
		<path
   class="st1"
   d="M 189.9,104.8 129.7,4.1 C 128.9,2.8 129.3,1.2 130.6,0.4 131,0.1 131.5,0 132.1,0 l 9.6,0.2 c 2.2,0.1 4.1,1.2 5.3,3.1 l 56.7,94.8 c 1.2,2.1 0.6,4.7 -1.5,6 -0.7,0.4 -1.4,0.6 -2.2,0.6 z"
   id="path6"
   inkscape:connector-curvature="0"
   style="fill:#224d88" />
		<path
   class="st2"
   d="m 175.7,104.8 h -55.2 c -1.5,0 -2.7,-1.2 -2.7,-2.7 0,-0.4 0.1,-0.9 0.3,-1.3 L 146,51.4 c 0.7,-1.3 2.4,-1.8 3.7,-1 0.4,0.2 0.7,0.5 0.9,0.8 l 5.1,7.6 c 1.3,2 1.4,4.5 0.3,6.6 l -13,23.5 h 20.1 c 6.9,0 12.6,5.6 12.6,12.6 v 0 z"
   id="path8"
   inkscape:connector-curvature="0"
   style="fill:#548cbe" />
		<g
   class="st3"
   id="g12"
   style="enable-background:new">
			
		</g>
		<g
   class="st3"
   id="g16"
   style="enable-background:new">
			
		</g>
		<g
   class="st3"
   id="g20"
   style="enable-background:new">
			
		</g>
		<g
   class="st3"
   id="g24"
   style="enable-background:new">
			
		</g>
		<g
   class="st3"
   id="g28"
   style="enable-background:new">
			
		</g>
		<g
   class="st3"
   id="g32"
   style="enable-background:new">
			
		</g>
		<g
   class="st3"
   id="g36"
   style="enable-background:new">
			
		</g>
		<g
   class="st3"
   id="g40"
   style="enable-background:new">
			
		</g>
		<g
   class="st3"
   id="g46"
   style="enable-background:new">
			
			
		</g>
		<g
   class="st3"
   id="g52"
   style="enable-background:new">
			
			
		</g>
	</g>
</g>
</svg>