<?xml version="1.0" encoding="UTF-8"?>
<svg xmlns="http://www.w3.org/2000/svg" xmlns:xlink="http://www.w3.org/1999/xlink" width="16px" height="11px" viewBox="0 0 16 11" version="1.1">
<defs>
<clipPath id="clip1">
  <rect x="0" y="0" width="16" height="11"/>
</clipPath>
<g id="surface5" clip-path="url(#clip1)">
<path style=" stroke:none;fill-rule:nonzero;fill:rgb(13.333333%,30.196078%,53.333333%);fill-opacity:1;" d="M 1.933594 9.085938 L 0.902344 9.085938 L 0.789062 9.523438 L 0.0429688 9.523438 L 0.96875 6.511719 L 1.890625 6.511719 L 2.824219 9.523438 L 2.046875 9.523438 Z M 1.421875 7.074219 L 1.0625 8.492188 L 1.777344 8.492188 Z M 1.421875 7.074219 "/>
</g>
<clipPath id="clip2">
  <rect x="0" y="0" width="16" height="11"/>
</clipPath>
<g id="surface8" clip-path="url(#clip2)">
<path style="fill:none;stroke-width:0.14;stroke-linecap:butt;stroke-linejoin:miter;stroke:rgb(13.333333%,30.196078%,53.333333%);stroke-opacity:1;stroke-miterlimit:22.93;" d="M 34.988026 161.31669 L 16.074207 161.31669 L 13.996553 169.084304 L 0.312691 169.084304 L 17.292142 115.612607 L 34.19995 115.612607 L 51.322688 169.084304 L 37.065681 169.084304 Z M 25.60276 125.599538 L 19.011581 150.774929 L 32.122296 150.774929 Z M 25.60276 125.599538 " transform="matrix(0.0545236,0,0,0.0563236,0.0259197,0)"/>
</g>
<clipPath id="clip3">
  <rect x="0" y="0" width="16" height="11"/>
</clipPath>
<g id="surface11" clip-path="url(#clip3)">
<path style=" stroke:none;fill-rule:nonzero;fill:rgb(13.333333%,30.196078%,53.333333%);fill-opacity:1;" d="M 5.597656 7.328125 L 4.890625 7.511719 C 4.769531 7.210938 4.59375 7.058594 4.277344 7.058594 C 3.851562 7.058594 3.589844 7.394531 3.589844 8.007812 C 3.589844 8.625 3.835938 8.976562 4.289062 8.976562 C 4.644531 8.976562 4.835938 8.792969 4.960938 8.453125 L 5.660156 8.667969 C 5.421875 9.28125 4.890625 9.601562 4.269531 9.601562 C 3.53125 9.601562 2.832031 9.140625 2.832031 8.015625 C 2.832031 6.910156 3.53125 6.433594 4.273438 6.433594 C 4.835938 6.433594 5.351562 6.667969 5.597656 7.328125 Z M 5.597656 7.328125 "/>
</g>
<clipPath id="clip4">
  <rect x="0" y="0" width="16" height="11"/>
</clipPath>
<g id="surface14" clip-path="url(#clip4)">
<path style="fill:none;stroke-width:0.14;stroke-linecap:butt;stroke-linejoin:miter;stroke:rgb(13.333333%,30.196078%,53.333333%);stroke-opacity:1;stroke-miterlimit:22.93;" d="M 102.189399 130.107528 L 89.22197 133.367152 C 87.001029 128.026918 83.777082 125.322124 77.973979 125.322124 C 70.164864 125.322124 65.364766 131.286541 65.364766 142.175071 C 65.364766 153.132955 69.878291 159.374787 78.188909 159.374787 C 84.708445 159.374787 88.218964 156.115163 90.511548 150.081392 L 103.335691 153.895845 C 98.965452 164.784375 89.22197 170.471378 77.830692 170.471378 C 64.290117 170.471378 51.465975 162.287642 51.465975 142.313778 C 51.465975 122.686683 64.290117 114.225533 77.902335 114.225533 C 88.218964 114.225533 97.675874 118.386754 102.189399 130.107528 Z M 102.189399 130.107528 " transform="matrix(0.0545236,0,0,0.0563236,0.0259197,0)"/>
</g>
<clipPath id="clip5">
  <rect x="0" y="0" width="16" height="11"/>
</clipPath>
<g id="surface17" clip-path="url(#clip5)">
<path style=" stroke:none;fill-rule:nonzero;fill:rgb(13.333333%,30.196078%,53.333333%);fill-opacity:1;" d="M 8.089844 7.136719 L 7.277344 7.136719 L 7.277344 9.523438 L 6.542969 9.523438 L 6.542969 7.136719 L 5.734375 7.136719 L 5.734375 6.511719 L 8.09375 6.511719 L 8.09375 7.136719 Z M 8.089844 7.136719 "/>
</g>
<clipPath id="clip6">
  <rect x="0" y="0" width="16" height="11"/>
</clipPath>
<g id="surface20" clip-path="url(#clip6)">
<path style="fill:none;stroke-width:0.14;stroke-linecap:butt;stroke-linejoin:miter;stroke:rgb(13.333333%,30.196078%,53.333333%);stroke-opacity:1;stroke-miterlimit:22.93;" d="M 147.897795 126.709197 L 132.995998 126.709197 L 132.995998 169.084304 L 119.527066 169.084304 L 119.527066 126.709197 L 104.696913 126.709197 L 104.696913 115.612607 L 147.969438 115.612607 L 147.969438 126.709197 Z M 147.897795 126.709197 " transform="matrix(0.0545236,0,0,0.0563236,0.0259197,0)"/>
</g>
<clipPath id="clip7">
  <rect x="0" y="0" width="16" height="11"/>
</clipPath>
<g id="surface23" clip-path="url(#clip7)">
<path style=" stroke:none;fill-rule:nonzero;fill:rgb(13.333333%,30.196078%,53.333333%);fill-opacity:1;" d="M 10.8125 8.386719 C 10.8125 9.078125 10.414062 9.601562 9.558594 9.601562 C 8.683594 9.601562 8.3125 9.066406 8.3125 8.386719 L 8.3125 6.511719 L 9.050781 6.511719 L 9.050781 8.382812 C 9.050781 8.796875 9.203125 8.988281 9.5625 8.988281 C 9.921875 8.988281 10.074219 8.78125 10.074219 8.382812 L 10.074219 6.511719 L 10.8125 6.511719 Z M 10.8125 8.386719 "/>
</g>
<clipPath id="clip8">
  <rect x="0" y="0" width="16" height="11"/>
</clipPath>
<g id="surface26" clip-path="url(#clip8)">
<path style="fill:none;stroke-width:0.14;stroke-linecap:butt;stroke-linejoin:miter;stroke:rgb(13.333333%,30.196078%,53.333333%);stroke-opacity:1;stroke-miterlimit:22.93;" d="M 197.833143 148.902379 C 197.833143 161.177983 190.525531 170.471378 174.835658 170.471378 C 158.787569 170.471378 151.98146 160.969922 151.98146 148.902379 L 151.98146 115.612607 L 165.522035 115.612607 L 165.522035 148.833026 C 165.522035 156.184517 168.316122 159.582848 174.907302 159.582848 C 181.498481 159.582848 184.292568 155.907102 184.292568 148.833026 L 184.292568 115.612607 L 197.833143 115.612607 Z M 197.833143 148.902379 " transform="matrix(0.0545236,0,0,0.0563236,0.0259197,0)"/>
</g>
<clipPath id="clip9">
  <rect x="0" y="0" width="16" height="11"/>
</clipPath>
<g id="surface29" clip-path="url(#clip9)">
<path style=" stroke:none;fill-rule:nonzero;fill:rgb(13.333333%,30.196078%,53.333333%);fill-opacity:1;" d="M 12.839844 9.085938 L 11.808594 9.085938 L 11.695312 9.523438 L 10.945312 9.523438 L 11.875 6.511719 L 12.796875 6.511719 L 13.726562 9.523438 L 12.953125 9.523438 Z M 12.328125 7.074219 L 11.964844 8.488281 L 12.679688 8.488281 Z M 12.328125 7.074219 "/>
<path style=" stroke:none;fill-rule:nonzero;fill:rgb(13.333333%,30.196078%,53.333333%);fill-opacity:1;" d="M 14.648438 8.882812 L 15.886719 8.882812 L 15.886719 9.53125 L 13.914062 9.53125 L 13.914062 6.515625 L 14.648438 6.515625 Z M 14.648438 8.882812 "/>
</g>
<clipPath id="clip10">
  <rect x="0" y="0" width="16" height="11"/>
</clipPath>
<g id="surface32" clip-path="url(#clip10)">
<path style="fill:none;stroke-width:0.14;stroke-linecap:butt;stroke-linejoin:miter;stroke:rgb(13.333333%,30.196078%,53.333333%);stroke-opacity:1;stroke-miterlimit:22.93;" d="M 235.015992 161.31669 L 216.102173 161.31669 L 214.024518 169.084304 L 200.269014 169.084304 L 217.320108 115.612607 L 234.227916 115.612607 L 251.279011 169.084304 L 237.093646 169.084304 Z M 225.630726 125.599538 L 218.967903 150.705575 L 232.078619 150.705575 Z M 225.630726 125.599538 " transform="matrix(0.0545236,0,0,0.0563236,0.0259197,0)"/>
<path style="fill:none;stroke-width:0.14;stroke-linecap:butt;stroke-linejoin:miter;stroke:rgb(13.333333%,30.196078%,53.333333%);stroke-opacity:1;stroke-miterlimit:22.93;" d="M 268.186819 157.710298 L 290.89773 157.710298 L 290.89773 169.223011 L 254.717887 169.223011 L 254.717887 115.68196 L 268.186819 115.68196 Z M 268.186819 157.710298 " transform="matrix(0.0545236,0,0,0.0563236,0.0259197,0)"/>
</g>
</defs>
<g id="surface1">
<path style=" stroke:none;fill-rule:nonzero;fill:rgb(52.54902%,75.686275%,89.411765%);fill-opacity:1;" d="M 5.71875 5.902344 L 4.976562 5.910156 C 4.894531 5.910156 4.828125 5.839844 4.828125 5.757812 C 4.828125 5.726562 4.835938 5.699219 4.851562 5.675781 L 7.191406 1.691406 C 7.234375 1.617188 7.320312 1.59375 7.390625 1.640625 C 7.414062 1.648438 7.429688 1.667969 7.441406 1.691406 L 7.742188 2.21875 C 7.800781 2.332031 7.800781 2.46875 7.742188 2.574219 L 6.007812 5.722656 C 5.953125 5.828125 5.839844 5.898438 5.71875 5.902344 Z M 5.71875 5.902344 "/>
<path style=" stroke:none;fill-rule:nonzero;fill:rgb(13.333333%,30.196078%,53.333333%);fill-opacity:1;" d="M 10.378906 5.902344 L 7.097656 0.230469 C 7.054688 0.15625 7.074219 0.0664062 7.148438 0.0234375 C 7.167969 0.00390625 7.195312 0 7.226562 0 L 7.75 0.0117188 C 7.871094 0.015625 7.976562 0.078125 8.039062 0.1875 L 11.132812 5.523438 C 11.199219 5.644531 11.164062 5.789062 11.050781 5.863281 C 11.011719 5.886719 10.972656 5.898438 10.929688 5.898438 Z M 10.378906 5.902344 "/>
<path style=" stroke:none;fill-rule:nonzero;fill:rgb(32.941176%,54.901961%,74.509804%);fill-opacity:1;" d="M 9.605469 5.902344 L 6.597656 5.902344 C 6.515625 5.902344 6.449219 5.835938 6.449219 5.75 C 6.449219 5.726562 6.453125 5.699219 6.464844 5.675781 L 7.988281 2.894531 C 8.023438 2.820312 8.117188 2.792969 8.1875 2.839844 C 8.210938 2.851562 8.226562 2.867188 8.238281 2.882812 L 8.515625 3.3125 C 8.585938 3.425781 8.589844 3.566406 8.53125 3.683594 L 7.824219 5.007812 L 8.917969 5.007812 C 9.296875 5.007812 9.605469 5.324219 9.605469 5.71875 Z M 9.605469 5.902344 "/>
<use xlink:href="#surface5"/>
<use xlink:href="#surface8"/>
<use xlink:href="#surface11"/>
<use xlink:href="#surface14"/>
<use xlink:href="#surface17"/>
<use xlink:href="#surface20"/>
<use xlink:href="#surface23"/>
<use xlink:href="#surface26"/>
<use xlink:href="#surface29"/>
<use xlink:href="#surface32"/>
</g>
</svg>
