<?xml version="1.0" encoding="utf-8"?>
<!-- Generator: Adobe Illustrator 24.3.0, SVG Export Plug-In . SVG Version: 6.00 Build 0)  -->
<svg version="1.1" id="Layer_1" xmlns="http://www.w3.org/2000/svg" xmlns:xlink="http://www.w3.org/1999/xlink" x="0px" y="0px"
	 width="232px" height="75px" viewBox="0 0 232 75" style="enable-background:new 0 0 232 75;" xml:space="preserve">
<style type="text/css">
	.st0{fill:#8D847C;}
</style>
<g>
	<g>
		<g>
			<path d="M85.83,62.74v-7.92h4.99v1.21h-3.64v2.19h2.93v1.21h-2.93v2.12h3.87v1.21H85.83z"/>
			<path d="M96.24,62.74l-1.23-1.73l-0.04,0l-1.23,1.73h-1.38l1.92-2.75l-1.91-2.69h1.45l1.19,1.7l-0.04,0l1.19-1.7h1.44l-1.9,2.68
				l1.94,2.76H96.24z"/>
			<path d="M101.17,62.83c-0.81,0-1.48-0.26-2-0.78c-0.52-0.52-0.78-1.19-0.78-2.02c0-0.83,0.26-1.51,0.79-2.03
				c0.53-0.52,1.2-0.78,2.03-0.78c0.44,0,0.86,0.09,1.27,0.26c0.41,0.17,0.75,0.43,1.02,0.75l-0.85,0.74
				c-0.36-0.42-0.81-0.63-1.37-0.63c-0.48,0-0.87,0.16-1.17,0.46c-0.3,0.31-0.45,0.71-0.45,1.21c0,0.5,0.15,0.9,0.45,1.21
				c0.3,0.31,0.69,0.46,1.17,0.46c0.56,0,1.03-0.19,1.38-0.58l0.86,0.76c-0.25,0.28-0.58,0.51-0.99,0.69
				C102.12,62.74,101.66,62.83,101.17,62.83z"/>
			<path d="M110.04,59.96c0,0.13-0.01,0.3-0.03,0.5h-3.97c0.08,0.39,0.26,0.69,0.54,0.91c0.27,0.22,0.61,0.33,1.01,0.33
				c0.57,0,1.02-0.21,1.36-0.64l0.87,0.75c-0.53,0.68-1.29,1.03-2.3,1.03c-0.8,0-1.47-0.26-1.99-0.78s-0.79-1.2-0.79-2.04
				c0-0.82,0.25-1.5,0.75-2.02s1.14-0.78,1.9-0.78c0.8,0,1.44,0.25,1.92,0.76C109.8,58.5,110.04,59.15,110.04,59.96z M108.33,58.64
				c-0.22-0.2-0.51-0.3-0.86-0.3c-0.35,0-0.65,0.1-0.9,0.29s-0.42,0.46-0.51,0.81h2.72C108.7,59.11,108.55,58.84,108.33,58.64z"/>
			<path d="M114.75,57.22c0.76,0,1.39,0.27,1.88,0.8c0.5,0.53,0.75,1.21,0.75,2.03c0,0.83-0.25,1.51-0.75,2.02s-1.13,0.77-1.9,0.77
				c-0.73,0-1.3-0.25-1.72-0.76h-0.01v2.88h-1.25V57.3h1.25v0.67C113.43,57.47,114.01,57.22,114.75,57.22z M113.41,61.24
				c0.3,0.3,0.68,0.46,1.14,0.46c0.45,0,0.83-0.15,1.12-0.46s0.44-0.7,0.44-1.18c0-0.51-0.15-0.93-0.45-1.24
				c-0.3-0.31-0.67-0.47-1.12-0.47c-0.46,0-0.84,0.16-1.14,0.49c-0.3,0.32-0.45,0.73-0.45,1.22
				C112.96,60.54,113.11,60.93,113.41,61.24z"/>
			<path d="M120.69,62.83c-0.48,0-0.85-0.15-1.12-0.46c-0.27-0.3-0.4-0.75-0.4-1.35v-2.67h-0.67V57.3h0.67v-1.81l1.25-0.13v1.94
				h1.59v1.06h-1.59v2.54c0,0.27,0.04,0.47,0.12,0.58c0.08,0.12,0.21,0.17,0.4,0.17c0.25,0,0.51-0.08,0.8-0.23l0.32,1.08
				C121.67,62.73,121.21,62.83,120.69,62.83z"/>
			<path d="M124.82,56.25c-0.17,0.16-0.37,0.25-0.6,0.25s-0.43-0.08-0.59-0.25c-0.16-0.16-0.25-0.36-0.25-0.59
				c0-0.22,0.08-0.42,0.25-0.58c0.16-0.16,0.36-0.24,0.59-0.24s0.43,0.08,0.6,0.24c0.17,0.16,0.25,0.36,0.25,0.58
				C125.07,55.89,124.99,56.09,124.82,56.25z M123.6,62.74V57.3h1.25v5.44H123.6z"/>
			<path d="M129.51,62.83c-0.85,0-1.54-0.26-2.06-0.79c-0.53-0.53-0.79-1.2-0.79-2.01s0.26-1.48,0.79-2.01
				c0.53-0.53,1.22-0.8,2.06-0.8c0.84,0,1.53,0.26,2.06,0.78c0.53,0.52,0.8,1.2,0.8,2.03c0,0.83-0.27,1.5-0.8,2.02
				C131.03,62.57,130.35,62.83,129.51,62.83z M129.51,61.7c0.45,0,0.82-0.16,1.13-0.47s0.46-0.71,0.46-1.19
				c0-0.5-0.15-0.9-0.45-1.22s-0.68-0.47-1.13-0.47c-0.47,0-0.85,0.16-1.14,0.48c-0.29,0.32-0.44,0.72-0.44,1.21
				c0,0.47,0.15,0.86,0.45,1.18C128.67,61.54,129.05,61.7,129.51,61.7z"/>
			<path d="M137.18,57.22c0.62,0,1.11,0.19,1.47,0.57c0.35,0.38,0.53,0.96,0.53,1.75v3.2h-1.25v-2.88c0-0.55-0.1-0.94-0.3-1.17
				s-0.49-0.35-0.89-0.35c-0.43,0-0.77,0.15-1.03,0.43c-0.25,0.29-0.38,0.7-0.38,1.23v2.73h-1.25V57.3h1.25v0.76h0.01
				C135.82,57.5,136.43,57.22,137.18,57.22z"/>
			<path d="M145.12,57.3h1.25v5.44h-1.19v-0.73h-0.02c-0.4,0.54-0.98,0.81-1.73,0.81c-0.77,0-1.4-0.26-1.89-0.77
				c-0.5-0.51-0.74-1.19-0.74-2.02c0-0.82,0.25-1.49,0.75-2.03c0.5-0.53,1.12-0.8,1.87-0.8c0.71,0,1.28,0.25,1.68,0.74h0.02V57.3z
				 M143.63,61.7c0.43,0,0.8-0.15,1.1-0.46c0.3-0.3,0.45-0.7,0.45-1.18s-0.15-0.89-0.44-1.22s-0.66-0.49-1.11-0.49
				s-0.82,0.16-1.12,0.47s-0.45,0.73-0.45,1.24c0,0.48,0.15,0.88,0.44,1.18S143.17,61.7,143.63,61.7z"/>
			<path d="M148.45,62.74v-8.21h1.25v8.21H148.45z"/>
			<path d="M161.32,62.74h-1.62l-1.9-2.82h-1.06v2.82h-1.35v-7.92h2.92c0.91,0,1.59,0.23,2.04,0.7c0.45,0.47,0.67,1.09,0.67,1.86
				c0,1.26-0.58,2.06-1.74,2.39v0.03L161.32,62.74z M156.75,56.03v2.68h1.28c0.52,0,0.92-0.12,1.19-0.36
				c0.28-0.24,0.41-0.57,0.41-0.98c0-0.42-0.13-0.75-0.4-0.99c-0.26-0.23-0.64-0.35-1.12-0.35H156.75z"/>
			<path d="M165.45,62.83c-0.85,0-1.54-0.26-2.06-0.79c-0.53-0.53-0.79-1.2-0.79-2.01s0.26-1.48,0.79-2.01
				c0.53-0.53,1.22-0.8,2.06-0.8c0.84,0,1.53,0.26,2.06,0.78c0.53,0.52,0.8,1.2,0.8,2.03c0,0.83-0.27,1.5-0.8,2.02
				C166.97,62.57,166.29,62.83,165.45,62.83z M165.45,61.7c0.45,0,0.82-0.16,1.13-0.47s0.46-0.71,0.46-1.19
				c0-0.5-0.15-0.9-0.45-1.22s-0.68-0.47-1.13-0.47c-0.47,0-0.85,0.16-1.14,0.48c-0.29,0.32-0.44,0.72-0.44,1.21
				c0,0.47,0.15,0.86,0.45,1.18C164.61,61.54,164.99,61.7,165.45,61.7z"/>
			<path d="M174.03,57.3h1.25v5.44h-1.19v-0.73h-0.02c-0.4,0.54-0.98,0.81-1.73,0.81c-0.77,0-1.4-0.26-1.89-0.77
				c-0.5-0.51-0.74-1.19-0.74-2.02c0-0.82,0.25-1.49,0.75-2.03c0.5-0.53,1.12-0.8,1.87-0.8c0.71,0,1.28,0.25,1.68,0.74h0.02V57.3z
				 M172.53,61.7c0.43,0,0.8-0.15,1.1-0.46c0.3-0.3,0.45-0.7,0.45-1.18s-0.15-0.89-0.44-1.22s-0.66-0.49-1.11-0.49
				s-0.82,0.16-1.12,0.47s-0.45,0.73-0.45,1.24c0,0.48,0.15,0.88,0.44,1.18S172.07,61.7,172.53,61.7z"/>
			<path d="M179.01,62.83c-0.87,0-1.6-0.26-2.2-0.79l0.62-0.94c0.43,0.42,0.96,0.64,1.57,0.64c0.24,0,0.42-0.05,0.56-0.15
				s0.2-0.23,0.2-0.39c0-0.13-0.08-0.23-0.23-0.32s-0.43-0.2-0.84-0.34c-0.54-0.19-0.95-0.41-1.23-0.67
				c-0.29-0.26-0.43-0.63-0.43-1.12c0-0.45,0.18-0.81,0.54-1.1c0.36-0.29,0.82-0.43,1.38-0.43c0.72,0,1.36,0.23,1.92,0.68
				l-0.63,0.98c-0.41-0.39-0.86-0.58-1.36-0.58c-0.15,0-0.28,0.04-0.41,0.12s-0.18,0.2-0.18,0.35c0,0.22,0.29,0.44,0.86,0.66
				c0.71,0.28,1.15,0.48,1.33,0.6c0.37,0.26,0.56,0.64,0.56,1.15c0,0.48-0.17,0.88-0.52,1.19S179.67,62.83,179.01,62.83z"/>
			<path d="M184.32,62.83c-0.48,0-0.85-0.15-1.12-0.46c-0.27-0.3-0.4-0.75-0.4-1.35v-2.67h-0.67V57.3h0.67v-1.81l1.25-0.13v1.94
				h1.59v1.06h-1.59v2.54c0,0.27,0.04,0.47,0.12,0.58c0.08,0.12,0.21,0.17,0.4,0.17c0.25,0,0.51-0.08,0.8-0.23l0.32,1.08
				C185.31,62.73,184.85,62.83,184.32,62.83z"/>
			<path d="M191.92,59.96c0,0.13-0.01,0.3-0.03,0.5h-3.97c0.08,0.39,0.26,0.69,0.54,0.91c0.27,0.22,0.61,0.33,1.01,0.33
				c0.57,0,1.02-0.21,1.36-0.64l0.87,0.75c-0.53,0.68-1.29,1.03-2.3,1.03c-0.8,0-1.47-0.26-1.99-0.78s-0.79-1.2-0.79-2.04
				c0-0.82,0.25-1.5,0.75-2.02s1.14-0.78,1.9-0.78c0.8,0,1.44,0.25,1.92,0.76C191.67,58.5,191.92,59.15,191.92,59.96z M190.2,58.64
				c-0.22-0.2-0.51-0.3-0.86-0.3c-0.35,0-0.65,0.1-0.9,0.29s-0.42,0.46-0.51,0.81h2.72C190.57,59.11,190.42,58.84,190.2,58.64z"/>
			<path d="M196.59,57.22h0.16v1.39c-0.19-0.02-0.32-0.02-0.38-0.02c-0.46,0-0.82,0.15-1.09,0.44c-0.26,0.29-0.4,0.67-0.4,1.13v2.58
				h-1.25V57.3h1.25v0.83h0.01C195.33,57.52,195.9,57.22,196.59,57.22z"/>
			<path d="M199.95,62.83c-0.87,0-1.6-0.26-2.2-0.79l0.62-0.94c0.43,0.42,0.96,0.64,1.57,0.64c0.24,0,0.42-0.05,0.56-0.15
				s0.2-0.23,0.2-0.39c0-0.13-0.08-0.23-0.23-0.32s-0.43-0.2-0.84-0.34c-0.54-0.19-0.95-0.41-1.23-0.67
				c-0.29-0.26-0.43-0.63-0.43-1.12c0-0.45,0.18-0.81,0.54-1.1c0.36-0.29,0.82-0.43,1.38-0.43c0.72,0,1.36,0.23,1.92,0.68
				l-0.63,0.98c-0.41-0.39-0.86-0.58-1.36-0.58c-0.15,0-0.28,0.04-0.41,0.12s-0.18,0.2-0.18,0.35c0,0.22,0.29,0.44,0.86,0.66
				c0.71,0.28,1.15,0.48,1.33,0.6c0.37,0.26,0.56,0.64,0.56,1.15c0,0.48-0.17,0.88-0.52,1.19S200.61,62.83,199.95,62.83z"/>
		</g>
	</g>
	<g>
		<path d="M151.13,29.59c-3.2,0-5.8,1.01-7.81,3.02c-2.01,2.01-3.02,4.61-3.02,7.78c0,3.16,1.01,5.75,3.02,7.77
			c2.01,2.02,4.62,3.03,7.81,3.03c3.16,0,5.74-1,7.75-3c2.01-2,3.02-4.6,3.02-7.8c0-3.22-1.01-5.82-3.02-7.81
			C156.87,30.58,154.29,29.59,151.13,29.59z M155.16,44.8c-1.07,1.18-2.41,1.78-4.03,1.78c-1.66,0-3.02-0.6-4.08-1.79
			c-1.07-1.19-1.6-2.66-1.6-4.39c0-1.76,0.53-3.23,1.6-4.41c1.07-1.18,2.43-1.78,4.08-1.78c1.62,0,2.96,0.59,4.03,1.76
			c1.07,1.17,1.6,2.65,1.6,4.43C156.75,42.15,156.22,43.62,155.16,44.8z"/>
		<path d="M75.15,44.64L75.15,44.64c-0.17-0.14-0.39-0.23-0.63-0.23c-0.26,0-0.5,0.1-0.67,0.27l-0.01-0.01
			c-0.45,0.42-0.96,0.79-1.54,1.09c-0.86,0.44-1.75,0.67-2.68,0.67c-1.68,0-3.04-0.57-4.08-1.72c-1.05-1.14-1.57-2.56-1.57-4.26
			c0-1.87,0.54-3.37,1.63-4.48c1.08-1.11,2.43-1.67,4.02-1.67c0.97,0,1.87,0.23,2.71,0.7c0.58,0.32,1.08,0.69,1.53,1.12l0,0
			c0.17,0.15,0.4,0.25,0.65,0.25c0.21,0,0.4-0.06,0.56-0.17l0,0l3.01-2.54c-1.11-1.36-2.41-2.38-3.92-3.05
			c-1.51-0.67-3.02-1.01-4.54-1.01c-3.35,0-6,1.03-7.93,3.09c-1.93,2.06-2.9,4.65-2.9,7.77c0,3.34,1.04,5.95,3.12,7.86
			c2.08,1.9,4.65,2.86,7.71,2.86c1.78,0,3.39-0.37,4.84-1.11c1.45-0.74,2.66-1.71,3.63-2.92L75.15,44.64z"/>
		<path d="M85.14,29.88L77.78,50.9h4.55v-0.01c0.42-0.04,0.76-0.35,0.86-0.75h0.01l0.97-3h7.57l1.16,3.13h0.01
			c0.14,0.37,0.5,0.63,0.92,0.63c0.02,0,0.03,0,0.04,0v0h4.09l-7.77-21.01H85.14z M85.53,42.94l2.28-7.07h0.06l2.31,7.07H85.53z"/>
		<path d="M110.68,43.44c2.6-1.08,3.91-3.19,3.91-6.3c0-2.19-0.63-3.95-1.89-5.27c-1.26-1.32-3.14-1.98-5.62-1.98h-8.2V50.9h3.89
			c0.55,0,0.99-0.44,0.99-0.99h0v-5.79h1.72l4.08,6.4l0.01,0c0.18,0.23,0.46,0.38,0.78,0.38h5.25l-4.91-7.4V43.44z M108.52,39.06
			c-0.61,0.49-1.44,0.74-2.49,0.74h-2.28v-5.56h2.37c1.07,0,1.88,0.26,2.46,0.78c0.57,0.52,0.86,1.19,0.86,2
			C109.44,37.89,109.13,38.57,108.52,39.06z"/>
		<path d="M127.66,41.01h-0.06l-5.83-11.13h-4.97V50.9h3.99v-0.01c0.52-0.03,0.93-0.46,0.93-0.98c0-0.01,0-0.01,0-0.02V39.32h0.06
			l4.26,7.73h3.17l4.26-7.75h0.06v10.59c0,0.01,0,0.01,0,0.02c0,0.55,0.44,0.99,0.99,0.99c0.01,0,0.02,0,0.04,0v0h3.89V29.88h-4.97
			L127.66,41.01z"/>
		<path d="M174.62,41.01h-0.06l-5.83-11.13h-4.97V50.9h3.93c0.54,0,0.97-0.43,0.98-0.96h0v-0.01c0,0,0-0.01,0-0.01
			c0,0,0-0.01,0-0.01V39.32h0.06l4.26,7.73h3.17l4.26-7.75h0.06v10.59c0,0.01,0,0.02,0,0.03c0,0.55,0.44,0.99,0.99,0.99
			c0.01,0,0.02,0,0.04,0v0h3.89V29.88h-4.97L174.62,41.01z"/>
		<path d="M193.7,29.88l-7.36,21.01h4.42l0,0c0.02,0,0.03,0,0.05,0c0.48,0,0.89-0.35,0.97-0.81l0.96-2.95h7.57l1.17,3.15l0.01,0
			c0.15,0.36,0.5,0.61,0.91,0.61c0.01,0,0.02,0,0.02,0l0,0h4.11l-7.77-21.01H193.7z M194.09,42.94l2.28-7.07h0.06l2.31,7.07H194.09z
			"/>
		<path d="M226.24,42.31c0.02-0.15,0.04-0.31,0.06-0.47c0.01-0.14,0.03-0.29,0.04-0.43c0.02-0.31,0.04-0.62,0.04-0.93
			c0-0.02,0-0.04,0-0.06c0-3.22-1.01-5.82-3.02-7.81c-2.01-1.99-4.6-2.99-7.75-2.99c0,0,0,0,0,0c0,0,0,0,0,0
			c-3.2,0-5.8,1.01-7.81,3.02c-1.99,1.99-2.99,4.56-3.01,7.69c0,0.03,0,0.06,0,0.09v0v0c0,3.16,1.01,5.75,3.02,7.77
			c2.01,2.02,4.62,3.03,7.81,3.03c0,0,0,0,0,0c0,0,0,0,0,0c2.48,0,4.59-0.63,6.37-1.86l3.06,2.77c0,0,0-0.01,0-0.01
			c0.17,0.14,0.38,0.22,0.62,0.22c0.29,0,0.55-0.13,0.73-0.32l2.09-2.3l-3.69-3.29C225.54,45.21,226.03,43.84,226.24,42.31z
			 M220.05,44.31c-0.24,0.31-0.5,0.59-0.78,0.85c-0.13,0.08-0.23,0.18-0.31,0.3c-0.87,0.7-1.9,1.07-3.07,1.12
			c-0.04-0.01-0.09-0.02-0.13-0.02c-0.07,0-0.15,0.01-0.22,0.03c-1.58-0.02-2.9-0.6-3.96-1.76c-1.08-1.17-1.61-2.65-1.61-4.42
			c0,0,0,0,0,0c0,0,0,0,0,0c0-0.01,0-0.02,0-0.04c0.01-1.76,0.54-3.22,1.61-4.38c1.08-1.17,2.42-1.76,4.04-1.76
			c0.01,0,0.02,0,0.03,0c0,0,0.01,0,0.01,0c0.02,0,0.03,0,0.05,0c0.08,0,0.16,0.02,0.25,0.03c0.56,0.03,1.08,0.12,1.56,0.29
			c0.04,0.02,0.09,0.03,0.13,0.05c0.09,0.03,0.17,0.07,0.26,0.1c0.65,0.29,1.23,0.72,1.75,1.29c0.09,0.1,0.16,0.2,0.24,0.3
			c0.05,0.06,0.1,0.13,0.15,0.19c0.8,1.09,1.2,2.4,1.2,3.94C221.23,41.92,220.84,43.22,220.05,44.31z"/>
		<path d="M229.08,43.59c-1.11,0-2.01,0.9-2.01,2.01s0.9,2.01,2.01,2.01c1.11,0,2.01-0.9,2.01-2.01S230.19,43.59,229.08,43.59z
			 M229.08,47.33c-0.95,0-1.73-0.77-1.73-1.73c0-0.95,0.77-1.73,1.73-1.73s1.73,0.77,1.73,1.73
			C230.81,46.55,230.04,47.33,229.08,47.33z"/>
		<path d="M229.49,45.87c0.33-0.09,0.5-0.32,0.5-0.69c0-0.22-0.06-0.4-0.19-0.53c-0.13-0.13-0.32-0.2-0.58-0.2h-0.84v2.27h0.39
			v-0.81h0.3l0.54,0.81h0.46L229.49,45.87L229.49,45.87z M229.12,45.56h-0.37v-0.77h0.39c0.14,0,0.25,0.03,0.32,0.1
			c0.08,0.07,0.11,0.16,0.11,0.28c0,0.12-0.04,0.21-0.12,0.28C229.39,45.53,229.27,45.56,229.12,45.56z"/>
	</g>
	<path class="st0" d="M18.23,74.17H34.4c1.22,0,2.21-0.99,2.21-2.21v-7.16c0-0.26,0.15-0.49,0.38-0.6
		C45.94,60.05,51.72,51,51.72,41.17c0-11.87-8.08-22.05-19.65-24.74c-0.23-0.05-0.42-0.23-0.49-0.46c-0.07-0.23,0-0.48,0.17-0.65
		l7.04-7.04c0.42-0.42,0.65-0.97,0.65-1.56V3.03c0-1.22-0.99-2.21-2.21-2.21H15.4c-1.22,0-2.21,0.99-2.21,2.21v3.68
		c0,0.59,0.23,1.14,0.65,1.56l7.04,7.04c0.17,0.17,0.24,0.42,0.17,0.65c-0.07,0.23-0.25,0.41-0.49,0.46
		C8.99,19.12,0.91,29.29,0.91,41.17c0,9.84,5.78,18.88,14.73,23.04c0.23,0.11,0.38,0.34,0.38,0.6v7.16
		C16.02,73.18,17.01,74.17,18.23,74.17z M32.2,69.1c0,0.37-0.3,0.66-0.66,0.66H21.1c-0.37,0-0.66-0.3-0.66-0.66V41.17
		c0-3.24,2.64-5.88,5.88-5.88s5.88,2.64,5.88,5.88V69.1z M47.1,44.13c-0.86,6.03-4.31,11.39-9.47,14.71
		c-0.11,0.07-0.23,0.11-0.36,0.11c-0.11,0-0.22-0.03-0.32-0.08c-0.21-0.12-0.35-0.34-0.35-0.58V44.03c0-0.37,0.3-0.66,0.66-0.66
		h9.17c0.19,0,0.38,0.08,0.5,0.23C47.07,43.74,47.13,43.94,47.1,44.13z M18.17,6.37c-0.19-0.19-0.25-0.48-0.14-0.72
		c0.1-0.25,0.34-0.41,0.61-0.41h15.35c0.27,0,0.51,0.16,0.61,0.41c0.1,0.25,0.05,0.53-0.14,0.72l-7.67,7.67
		c-0.13,0.13-0.3,0.19-0.47,0.19c-0.17,0-0.34-0.06-0.47-0.19L18.17,6.37z M15.67,58.86c-0.1,0.05-0.21,0.08-0.32,0.08
		c-0.13,0-0.25-0.04-0.36-0.11c-6.06-3.89-9.68-10.5-9.68-17.67c0-11.58,9.42-21,21-21c5.08,0,9.99,1.85,13.81,5.2
		c3.79,3.32,6.27,7.88,6.97,12.83c0.03,0.19-0.03,0.38-0.16,0.53c-0.13,0.15-0.31,0.23-0.5,0.23h-9.55c-0.3,0-0.56-0.2-0.64-0.49
		c-1.22-4.47-5.3-7.6-9.93-7.6c-5.68,0-10.29,4.62-10.29,10.29v17.11C16.02,58.52,15.89,58.74,15.67,58.86z"/>
</g>
</svg>
