<?xml version="1.0" encoding="UTF-8"?>
<svg xmlns="http://www.w3.org/2000/svg" xmlns:xlink="http://www.w3.org/1999/xlink" width="16px" height="11px" viewBox="0 0 16 11" version="1.1">
<g id="surface1">
<path style=" stroke:none;fill-rule:nonzero;fill:rgb(52.54902%,75.686275%,89.411765%);fill-opacity:1;" d="M 3.832031 10.996094 L 2.445312 11.007812 C 2.292969 11.007812 2.171875 10.882812 2.171875 10.722656 C 2.171875 10.671875 2.179688 10.617188 2.210938 10.578125 L 6.582031 3.128906 C 6.664062 2.992188 6.824219 2.949219 6.957031 3.035156 C 7 3.054688 7.027344 3.085938 7.050781 3.128906 L 7.609375 4.117188 C 7.722656 4.328125 7.722656 4.582031 7.609375 4.78125 L 4.371094 10.660156 C 4.269531 10.859375 4.054688 10.988281 3.832031 10.996094 Z M 3.832031 10.996094 "/>
<path style=" stroke:none;fill-rule:nonzero;fill:rgb(13.333333%,30.196078%,53.333333%);fill-opacity:1;" d="M 12.539062 10.996094 L 6.40625 0.402344 C 6.328125 0.265625 6.367188 0.0976562 6.5 0.015625 C 6.539062 -0.015625 6.589844 -0.0273438 6.652344 -0.0273438 L 7.628906 -0.0078125 C 7.855469 0.00390625 8.046875 0.121094 8.167969 0.320312 L 13.945312 10.292969 C 14.066406 10.511719 14.003906 10.785156 13.792969 10.921875 C 13.71875 10.964844 13.648438 10.988281 13.566406 10.988281 Z M 12.539062 10.996094 "/>
<path style=" stroke:none;fill-rule:nonzero;fill:rgb(32.941176%,54.901961%,74.509804%);fill-opacity:1;" d="M 11.09375 10.996094 L 5.472656 10.996094 C 5.316406 10.996094 5.195312 10.871094 5.195312 10.714844 C 5.195312 10.671875 5.207031 10.617188 5.226562 10.578125 L 8.066406 5.378906 C 8.140625 5.242188 8.3125 5.191406 8.445312 5.273438 C 8.484375 5.296875 8.515625 5.328125 8.535156 5.359375 L 9.054688 6.160156 C 9.1875 6.367188 9.199219 6.632812 9.085938 6.851562 L 7.761719 9.324219 L 9.808594 9.324219 C 10.511719 9.324219 11.09375 9.914062 11.09375 10.648438 Z M 11.09375 10.996094 "/>
</g>
</svg>
